<?xml version="1.0" encoding="utf-8" standalone="no"?>
<!DOCTYPE svg PUBLIC "-//W3C//DTD SVG 1.1//EN"
  "http://www.w3.org/Graphics/SVG/1.1/DTD/svg11.dtd">
<!-- Created with matplotlib (https://matplotlib.org/) -->
<svg height="345.6pt" version="1.1" viewBox="0 0 460.8 345.6" width="460.8pt" xmlns="http://www.w3.org/2000/svg" xmlns:xlink="http://www.w3.org/1999/xlink">
 <defs>
  <style type="text/css">
*{stroke-linecap:butt;stroke-linejoin:round;}
  </style>
 </defs>
 <g id="figure_1">
  <g id="patch_1">
   <path d="M 0 345.6 
L 460.8 345.6 
L 460.8 0 
L 0 0 
z
" style="fill:none;"/>
  </g>
  <g id="axes_1">
   <g id="patch_2">
    <path d="M 64.997807 287.210711 
L 290.251089 287.210711 
L 290.251089 36.563515 
L 64.997807 36.563515 
z
" style="fill:none;"/>
   </g>
   <g id="matplotlib.axis_1">
    <g id="xtick_1">
     <g id="line2d_1">
      <defs>
       <path d="M 0 0 
L 0 3.5 
" id="m9bfcccee23" style="stroke:#000000;stroke-width:0.8;"/>
      </defs>
      <g>
       <use style="stroke:#000000;stroke-width:0.8;" x="64.997807" xlink:href="#m9bfcccee23" y="287.210711"/>
      </g>
     </g>
     <g id="text_1">
      <!-- $\Gamma$ -->
      <defs>
       <path d="M 51.796875 68 
L 5.09375 68 
L 5.09375 65.390625 
C 12 65.390625 13.09375 65.390625 13.09375 60.890625 
L 13.09375 7.078125 
C 13.09375 2.59375 12 2.59375 5.09375 2.59375 
L 5.09375 0 
C 8 0.1875 13.59375 0.1875 16.703125 0.1875 
C 20.796875 0.1875 25.59375 0.1875 29.703125 0 
L 29.703125 2.59375 
L 27.5 2.59375 
C 19.90625 2.59375 19.703125 3.59375 19.703125 7.1875 
L 19.703125 61.5 
C 19.703125 64.890625 19.90625 65.390625 23.90625 65.390625 
L 34.90625 65.390625 
C 50.09375 65.390625 50.90625 58.40625 52.40625 45.921875 
L 54.203125 45.921875 
z
" id="CMR17-0"/>
      </defs>
      <g transform="translate(60.121691 305.2803)scale(0.16 -0.16)">
       <use transform="scale(0.996264)" xlink:href="#CMR17-0"/>
      </g>
     </g>
    </g>
    <g id="xtick_2">
     <g id="line2d_2">
      <g>
       <use style="stroke:#000000;stroke-width:0.8;" x="122.836647" xlink:href="#m9bfcccee23" y="287.210711"/>
      </g>
     </g>
     <g id="text_2">
      <!-- X -->
      <defs>
       <path d="M 34.59375 36.375 
L 57.203125 69 
L 48 69 
L 30.5 43.140625 
L 12.5 69 
L 2.59375 69 
L 26.40625 36.375 
L 1.296875 0 
L 10.5 0 
L 30.5 30.3125 
L 51.203125 0 
L 61.09375 0 
z
" id="CMSS17-88"/>
      </defs>
      <g transform="translate(117.680119 305.2803)scale(0.16 -0.16)">
       <use transform="scale(0.996264)" xlink:href="#CMSS17-88"/>
      </g>
     </g>
    </g>
    <g id="xtick_3">
     <g id="line2d_3">
      <g>
       <use style="stroke:#000000;stroke-width:0.8;" x="138.81983" xlink:href="#m9bfcccee23" y="287.210711"/>
      </g>
     </g>
     <g id="text_3">
      <!-- P -->
      <defs>
       <path d="M 32.90625 29 
C 44.90625 29 54.703125 38.234375 54.703125 49.046875 
C 54.703125 59.65625 45.296875 69 32.296875 69 
L 8.90625 69 
L 8.90625 0 
L 17.296875 0 
L 17.296875 29 
z
M 30.09375 63.390625 
C 41.703125 63.390625 46.796875 56.21875 46.796875 49.046875 
C 46.796875 42.359375 42.09375 34.796875 30.09375 34.796875 
L 17.09375 34.796875 
L 17.09375 63.390625 
z
" id="CMSS17-80"/>
      </defs>
      <g transform="translate(133.857019 305.2803)scale(0.16 -0.16)">
       <use transform="scale(0.996264)" xlink:href="#CMSS17-80"/>
      </g>
     </g>
    </g>
    <g id="xtick_4">
     <g id="line2d_4">
      <g>
       <use style="stroke:#000000;stroke-width:0.8;" x="179.718458" xlink:href="#m9bfcccee23" y="287.210711"/>
      </g>
     </g>
     <g id="text_4">
      <!-- N -->
      <defs>
       <path d="M 22.90625 65.296875 
L 21.09375 69 
L 8.796875 69 
L 8.796875 0 
L 16.59375 0 
L 16.59375 61.328125 
L 16.703125 61.421875 
C 17.40625 59.640625 17.796875 58.734375 21.90625 49.890625 
L 43.296875 3.6875 
L 45.09375 0 
L 57.40625 0 
L 57.40625 69 
L 49.59375 69 
L 49.59375 7.65625 
L 49.5 7.5625 
C 48.796875 9.34375 48.40625 10.234375 44.296875 19.09375 
z
" id="CMSS17-78"/>
      </defs>
      <g transform="translate(174.248287 305.2803)scale(0.16 -0.16)">
       <use transform="scale(0.996264)" xlink:href="#CMSS17-78"/>
      </g>
     </g>
    </g>
    <g id="xtick_5">
     <g id="line2d_5">
      <g>
       <use style="stroke:#000000;stroke-width:0.8;" x="223.635404" xlink:href="#m9bfcccee23" y="287.210711"/>
      </g>
     </g>
     <g id="text_5">
      <!-- $\Gamma$ -->
      <g transform="translate(218.759288 305.2803)scale(0.16 -0.16)">
       <use transform="scale(0.996264)" xlink:href="#CMR17-0"/>
      </g>
     </g>
    </g>
    <g id="xtick_6">
     <g id="line2d_6">
      <g>
       <use style="stroke:#000000;stroke-width:0.8;" x="255.601772" xlink:href="#m9bfcccee23" y="287.210711"/>
      </g>
     </g>
     <g id="text_6">
      <!-- Z -->
      <defs>
       <path d="M 52.203125 64.890625 
L 52.203125 69 
L 6.5 69 
L 6.5 62.6875 
L 25.203125 62.6875 
C 26.40625 62.6875 27.59375 62.796875 28.796875 62.796875 
L 41.59375 62.796875 
L 5.203125 4.296875 
L 5.203125 0 
L 52.703125 0 
L 52.703125 6.59375 
L 43.796875 6.59375 
C 35.5 6.59375 27.09375 6.390625 18.796875 6.390625 
L 15.796875 6.390625 
z
" id="CMSS17-90"/>
      </defs>
      <g transform="translate(250.832669 305.2803)scale(0.16 -0.16)">
       <use transform="scale(0.996264)" xlink:href="#CMSS17-90"/>
      </g>
     </g>
    </g>
    <g id="xtick_7">
     <g id="line2d_7">
      <g>
       <use style="stroke:#000000;stroke-width:0.8;" x="290.251089" xlink:href="#m9bfcccee23" y="287.210711"/>
      </g>
     </g>
     <g id="text_7">
      <!-- S -->
      <defs>
       <path d="M 43.703125 66.09375 
C 39.296875 68.6875 34.5 71 26.40625 71 
C 13.5 71 5.203125 61.46875 5.203125 51.703125 
C 5.203125 47.875 6.296875 43.546875 10.203125 39.125 
C 14.09375 34.6875 18.5 33.484375 24.09375 32.078125 
C 26.40625 31.46875 30.296875 30.359375 31 30.0625 
C 36.59375 27.84375 39.296875 22.71875 39.296875 17.875 
C 39.296875 11.53125 34.40625 4.796875 25.703125 4.796875 
C 22.703125 4.796875 13.90625 5.296875 5.59375 12.953125 
L 4.203125 5 
C 12.40625 -1 21.296875 -2 25.796875 -2 
C 38.09375 -2 46.90625 7.71875 46.90625 18.78125 
C 46.90625 22.8125 45.703125 27.953125 41.5 32.6875 
C 37.40625 37.203125 33.796875 38.21875 25.59375 40.4375 
C 20.90625 41.640625 17.90625 42.453125 15.40625 45.5625 
C 13.703125 47.78125 12.796875 49.890625 12.796875 52.609375 
C 12.796875 58.25 17.59375 64.390625 26.40625 64.390625 
C 30.796875 64.390625 36.5 63.484375 42.296875 58.046875 
z
" id="CMSS17-83"/>
      </defs>
      <g transform="translate(285.915541 305.2803)scale(0.16 -0.16)">
       <use transform="scale(0.996264)" xlink:href="#CMSS17-83"/>
      </g>
     </g>
    </g>
    <g id="text_8">
     <!-- K-path -->
     <defs>
      <path d="M 34.90625 41.640625 
L 59.796875 69 
L 50.203125 69 
L 17.203125 32.90625 
L 17.203125 69 
L 8.796875 69 
L 8.796875 0 
L 17.203125 0 
L 17.203125 22.359375 
L 29.296875 35.578125 
L 51.796875 0 
L 61.09375 0 
z
" id="CMSS17-75"/>
      <path d="M 26 19 
L 26 24.796875 
L 1 24.796875 
L 1 19 
z
" id="CMSS17-45"/>
      <path d="M 15.09375 4.296875 
C 18.40625 1.09375 22.90625 -1 27.703125 -1 
C 37 -1 45 8.640625 45 21.59375 
C 45 33.546875 39 44 30.40625 44 
C 25.40625 44 19.40625 42.1875 14.90625 38.59375 
L 14.90625 43.1875 
L 7.5 43.1875 
L 7.5 -20 
L 15.09375 -20 
z
M 15.09375 32.625 
C 15.90625 33.84375 19.296875 37.6875 24.796875 37.6875 
C 31.796875 37.6875 37.40625 30.40625 37.40625 21.59375 
C 37.40625 11.578125 30.59375 5.09375 23.90625 5.09375 
C 21.90625 5.09375 19.796875 5.59375 17.796875 7.3125 
C 15.09375 9.75 15.09375 11.265625 15.09375 12.6875 
z
" id="CMSS17-112"/>
      <path d="M 37.59375 27.953125 
C 37.59375 37.484375 30.90625 44 21.90625 44 
C 17.5 44 12.703125 43.1875 7.203125 39.984375 
L 7.796875 33.328125 
C 10.296875 35.15625 14.59375 38.09375 21.796875 38.09375 
C 26.90625 38.09375 30 34.140625 30 27.84375 
L 30 24 
C 14 23.5 4 18.890625 4 11.109375 
C 4 7.0625 6.5 -1 14.796875 -1 
C 16.296875 -1 24.40625 -0.8125 30.203125 3.5 
L 30.203125 -0.203125 
L 37.59375 -0.203125 
z
M 30 12.875 
C 30 11.109375 30 8.734375 27 6.96875 
C 24.40625 5.296875 21.09375 5.09375 19.703125 5.09375 
C 14.703125 5.09375 11.296875 7.859375 11.296875 11.296875 
C 11.296875 18.203125 26.90625 18.890625 30 19 
z
" id="CMSS17-97"/>
      <path d="M 16.703125 37.1875 
L 29.703125 37.1875 
L 29.703125 43 
L 16.703125 43 
L 16.703125 55 
L 9.59375 55 
L 9.59375 43 
L 1.703125 43 
L 1.703125 37.1875 
L 9.40625 37.1875 
L 9.40625 11.734375 
C 9.40625 6 10.703125 -1 17.296875 -1 
C 22.296875 -1 26.90625 0.390625 31.296875 2.6875 
L 29.703125 8.609375 
C 27.296875 6.5 24.40625 5.296875 21.296875 5.296875 
C 16.90625 5.296875 16.703125 10.921875 16.703125 13.4375 
z
" id="CMSS17-116"/>
      <path d="M 40.90625 29.34375 
C 40.90625 35.671875 39.40625 44 28.09375 44 
C 21.796875 44 17.703125 40.890625 14.796875 37.484375 
L 14.796875 69 
L 7.40625 69 
L 7.40625 0 
L 15 0 
L 15 24.3125 
C 15 30.65625 17.40625 37.890625 24.203125 37.890625 
C 33 37.890625 33.296875 31.953125 33.296875 28.53125 
L 33.296875 0 
L 40.90625 0 
z
" id="CMSS17-104"/>
     </defs>
     <g transform="translate(155.08884 323.449364)scale(0.16 -0.16)">
      <use transform="scale(0.996264)" xlink:href="#CMSS17-75"/>
      <use transform="translate(64.820294 0)scale(0.996264)" xlink:href="#CMSS17-45"/>
      <use transform="translate(96.049406 0)scale(0.996264)" xlink:href="#CMSS17-112"/>
      <use transform="translate(144.25435 0)scale(0.996264)" xlink:href="#CMSS17-97"/>
      <use transform="translate(189.17627 0)scale(0.996264)" xlink:href="#CMSS17-116"/>
      <use transform="translate(223.007837 0)scale(0.996264)" xlink:href="#CMSS17-104"/>
     </g>
    </g>
   </g>
   <g id="matplotlib.axis_2">
    <g id="ytick_1">
     <g id="line2d_8">
      <defs>
       <path d="M 0 0 
L -3.5 0 
" id="mea5c66b618" style="stroke:#000000;stroke-width:0.8;"/>
      </defs>
      <g>
       <use style="stroke:#000000;stroke-width:0.8;" x="64.997807" xlink:href="#mea5c66b618" y="262.145992"/>
      </g>
     </g>
     <g id="text_9">
      <!-- $-4$ -->
      <defs>
       <path d="M 65.90625 23 
C 67.59375 23 69.40625 23 69.40625 25 
C 69.40625 27 67.59375 27 65.90625 27 
L 11.796875 27 
C 10.09375 27 8.296875 27 8.296875 25 
C 8.296875 23 10.09375 23 11.796875 23 
z
" id="CMSY10-0"/>
       <path d="M 33.59375 64.796875 
C 33.59375 66.890625 33.5 67 31.703125 67 
L 2 19.59375 
L 2 17 
L 27.796875 17 
L 27.796875 7.1875 
C 27.796875 3.59375 27.59375 2.59375 20.59375 2.59375 
L 18.703125 2.59375 
L 18.703125 0 
C 21.90625 0.1875 27.296875 0.1875 30.703125 0.1875 
C 34.09375 0.1875 39.5 0.1875 42.703125 0 
L 42.703125 2.59375 
L 40.796875 2.59375 
C 33.796875 2.59375 33.59375 3.59375 33.59375 7.1875 
L 33.59375 17 
L 43.796875 17 
L 43.796875 19.59375 
L 33.59375 19.59375 
z
M 28.09375 58.171875 
L 28.09375 19.59375 
L 4 19.59375 
z
" id="CMR17-52"/>
      </defs>
      <g transform="translate(37.795824 267.680786)scale(0.16 -0.16)">
       <use transform="scale(0.996264)" xlink:href="#CMSY10-0"/>
       <use transform="translate(77.487468 0)scale(0.996264)" xlink:href="#CMR17-52"/>
      </g>
     </g>
    </g>
    <g id="ytick_2">
     <g id="line2d_9">
      <g>
       <use style="stroke:#000000;stroke-width:0.8;" x="64.997807" xlink:href="#mea5c66b618" y="212.016552"/>
      </g>
     </g>
     <g id="text_10">
      <!-- $-2$ -->
      <defs>
       <path d="M 41.703125 15.46875 
L 39.90625 15.46875 
C 38.90625 8.390625 38.09375 7.1875 37.703125 6.59375 
C 37.203125 5.796875 30 5.796875 28.59375 5.796875 
L 9.40625 5.796875 
C 13 9.6875 20 16.765625 28.5 24.9375 
C 34.59375 30.71875 41.703125 37.5 41.703125 47.390625 
C 41.703125 59.1875 32.296875 66 21.796875 66 
C 10.796875 66 4.09375 56.296875 4.09375 47.296875 
C 4.09375 43.390625 7 42.890625 8.203125 42.890625 
C 9.203125 42.890625 12.203125 43.484375 12.203125 46.984375 
C 12.203125 50.09375 9.59375 51 8.203125 51 
C 7.59375 51 7 50.890625 6.59375 50.6875 
C 8.5 59.1875 14.296875 63.390625 20.40625 63.390625 
C 29.09375 63.390625 34.796875 56.5 34.796875 47.390625 
C 34.796875 38.703125 29.703125 31.21875 24 24.734375 
L 4.09375 2.296875 
L 4.09375 0 
L 39.296875 0 
z
" id="CMR17-50"/>
      </defs>
      <g transform="translate(37.795824 217.551347)scale(0.16 -0.16)">
       <use transform="scale(0.996264)" xlink:href="#CMSY10-0"/>
       <use transform="translate(77.487468 0)scale(0.996264)" xlink:href="#CMR17-50"/>
      </g>
     </g>
    </g>
    <g id="ytick_3">
     <g id="line2d_10">
      <g>
       <use style="stroke:#000000;stroke-width:0.8;" x="64.997807" xlink:href="#mea5c66b618" y="161.887113"/>
      </g>
     </g>
     <g id="text_11">
      <!-- $0$ -->
      <defs>
       <path d="M 42 31.84375 
C 42 37.96875 41.90625 48.421875 37.703125 56.453125 
C 34 63.484375 28.09375 66 22.90625 66 
C 18.09375 66 12 63.78125 8.203125 56.5625 
C 4.203125 49.015625 3.796875 39.671875 3.796875 31.84375 
C 3.796875 26.109375 3.90625 17.375 7 9.734375 
C 11.296875 -0.609375 19 -2 22.90625 -2 
C 27.5 -2 34.5 -0.109375 38.59375 9.4375 
C 41.59375 16.375 42 24.5 42 31.84375 
z
M 22.90625 -0.40625 
C 16.5 -0.40625 12.703125 5.125 11.296875 12.75 
C 10.203125 18.6875 10.203125 27.328125 10.203125 32.953125 
C 10.203125 40.6875 10.203125 47.109375 11.5 53.234375 
C 13.40625 61.78125 19 64.390625 22.90625 64.390625 
C 27 64.390625 32.296875 61.671875 34.203125 53.4375 
C 35.5 47.71875 35.59375 40.984375 35.59375 32.953125 
C 35.59375 26.421875 35.59375 18.375 34.40625 12.453125 
C 32.296875 1.5 26.40625 -0.40625 22.90625 -0.40625 
z
" id="CMR17-48"/>
      </defs>
      <g transform="translate(50.19382 167.421907)scale(0.16 -0.16)">
       <use transform="scale(0.996264)" xlink:href="#CMR17-48"/>
      </g>
     </g>
    </g>
    <g id="ytick_4">
     <g id="line2d_11">
      <g>
       <use style="stroke:#000000;stroke-width:0.8;" x="64.997807" xlink:href="#mea5c66b618" y="111.757674"/>
      </g>
     </g>
     <g id="text_12">
      <!-- $2$ -->
      <g transform="translate(50.19382 117.292468)scale(0.16 -0.16)">
       <use transform="scale(0.996264)" xlink:href="#CMR17-50"/>
      </g>
     </g>
    </g>
    <g id="ytick_5">
     <g id="line2d_12">
      <g>
       <use style="stroke:#000000;stroke-width:0.8;" x="64.997807" xlink:href="#mea5c66b618" y="61.628235"/>
      </g>
     </g>
     <g id="text_13">
      <!-- $4$ -->
      <g transform="translate(50.19382 67.163029)scale(0.16 -0.16)">
       <use transform="scale(0.996264)" xlink:href="#CMR17-52"/>
      </g>
     </g>
    </g>
    <g id="text_14">
     <!-- Energy (E-$\epsilon_f$) [eV] -->
     <defs>
      <path d="M 30.59375 6.796875 
C 22.59375 6.796875 19 6.796875 17.203125 6.6875 
L 17.203125 32.890625 
L 48.203125 32.890625 
L 48.203125 39 
L 17.203125 39 
L 17.203125 62.390625 
L 30.09375 62.390625 
C 31.296875 62.390625 32.5 62.296875 33.703125 62.296875 
L 50.796875 62.296875 
L 50.796875 68.796875 
L 8.796875 68.796875 
L 8.796875 0 
L 52.09375 0 
L 52.09375 6.890625 
z
" id="CMSS17-69"/>
      <path d="M 40.90625 29.34375 
C 40.90625 35.671875 39.40625 44 28.09375 44 
C 21.703125 44 17.5 40.6875 14.703125 37.28125 
L 14.703125 43.484375 
L 7.40625 43.484375 
L 7.40625 0 
L 15 0 
L 15 24.3125 
C 15 30.65625 17.40625 37.890625 24.203125 37.890625 
C 33 37.890625 33.296875 31.953125 33.296875 28.53125 
L 33.296875 0 
L 40.90625 0 
z
" id="CMSS17-110"/>
      <path d="M 39.09375 21.484375 
C 39.09375 24.796875 38.90625 31.265625 35.703125 36.671875 
C 32.203125 42.390625 26.5 44 22.203125 44 
C 11.796875 44 3 34.125 3 21.296875 
C 3 9.046875 12.09375 -1 23.59375 -1 
C 28.09375 -1 33.59375 0.296875 38.59375 3.890625 
C 38.59375 4.296875 38.40625 6.46875 38.296875 6.578125 
C 38.296875 6.765625 38 9.828125 38 10.234375 
C 33.203125 6.375 27.703125 5.09375 23.703125 5.09375 
C 17.296875 5.09375 10.40625 10.421875 10.09375 21.484375 
z
M 10.90625 27 
C 12.203125 32.59375 16.59375 37.890625 22.203125 37.890625 
C 23.703125 37.890625 30.703125 37.6875 32.5 27 
z
" id="CMSS17-101"/>
      <path d="M 14.90625 21.390625 
C 14.90625 30.84375 21.796875 37.171875 30.59375 37.375 
L 30.59375 44 
C 24.203125 43.890625 18.203125 40.6875 14.59375 35.46875 
L 14.59375 43.484375 
L 7.5 43.484375 
L 7.5 0 
L 14.90625 0 
z
" id="CMSS17-114"/>
      <path d="M 44.5 44 
C 38.796875 43.890625 33.90625 42.796875 29.90625 40.890625 
C 26.59375 43.484375 23.203125 44 20.90625 44 
C 12.203125 44 5.59375 36.8125 5.59375 28.5 
C 5.59375 23.140625 8.59375 19.09375 8.796875 18.890625 
C 7 16.390625 6 13.6875 6 10.6875 
C 6 7.1875 7.40625 4.6875 8.5 3.296875 
C 3.296875 0.09375 2.59375 -4.8125 2.59375 -6.703125 
C 2.59375 -14 11.703125 -20 23.40625 -20 
C 35.203125 -20 44.296875 -14 44.296875 -6.609375 
C 44.296875 7.1875 29 7.296875 24.796875 7.296875 
L 16.703125 7.296875 
C 15.203125 7.296875 11.203125 7.296875 11.203125 12.390625 
C 11.203125 14.390625 12.09375 15.6875 12.203125 15.796875 
C 13.703125 14.6875 16.796875 13 20.90625 13 
C 29.203125 13 36.09375 19.984375 36.09375 28.5 
C 36.09375 33.25 33.90625 36.703125 33 37.890625 
L 33.296875 37.890625 
C 33.59375 37.890625 37.796875 38.1875 39.296875 38.1875 
C 42.5 38.1875 42.796875 38.09375 45.59375 37.796875 
z
M 20.90625 18.5 
C 17.5 18.5 12.703125 20.578125 12.703125 28.5 
C 12.703125 37.109375 18.203125 38.484375 20.796875 38.484375 
C 24.203125 38.484375 29 36.40625 29 28.5 
C 29 19.875 23.5 18.5 20.90625 18.5 
z
M 24.703125 0 
C 27.09375 0 37.203125 0 37.203125 -6.8125 
C 37.203125 -11.109375 31 -14.5 23.5 -14.5 
C 15.90625 -14.5 9.703125 -11.203125 9.703125 -6.703125 
C 9.703125 -6.203125 9.703125 0 16.59375 0 
z
" id="CMSS17-103"/>
      <path d="M 41.796875 43 
L 34 43 
C 25.5 20.203125 22.59375 10.953125 22.40625 5.984375 
L 22.296875 5.984375 
C 22 10.859375 17.59375 22.796875 14.09375 31.34375 
L 9.40625 43 
L 1.296875 43 
L 19 0.21875 
C 17.90625 -2.765625 16.296875 -7.25 15.796875 -8.234375 
C 13.59375 -13.8125 12.09375 -13.8125 10.5 -13.8125 
C 10.09375 -13.8125 6.90625 -13.703125 3.296875 -12.609375 
L 3.90625 -19.203125 
C 6.40625 -19.703125 8.90625 -20 10.703125 -20 
C 13.203125 -20 18.203125 -20 22.796875 -7.734375 
z
" id="CMSS17-121"/>
      <path d="M 25.203125 75 
C 19.796875 69.484375 7.40625 56.671875 7.40625 25.046875 
C 7.40625 -6.6875 19.796875 -19.40625 25.203125 -25 
L 31.296875 -25 
C 19 -12.203125 15 5.71875 15 24.9375 
C 15 44.0625 18.796875 62.078125 31.296875 75 
z
" id="CMSS17-40"/>
      <path d="M 29.09375 23 
C 30.59375 23 32.296875 23 32.296875 24.59375 
C 32.296875 25.890625 31.296875 25.890625 29.5 25.890625 
L 13.296875 25.890625 
C 15.796875 34.75 21.703125 40.09375 30.59375 40.09375 
L 33.5 40.09375 
C 35.203125 40.09375 36.703125 40.09375 36.703125 41.6875 
C 36.703125 43 35.59375 43 33.796875 43 
L 30.40625 43 
C 18.09375 43 4.59375 33.375 4.59375 17.828125 
C 4.59375 6.5625 12.09375 -1 22 -1 
C 28.40625 -1 34.703125 3.015625 34.703125 4.03125 
C 34.703125 4.640625 34.40625 5.25 33.796875 5.25 
C 33.5 5.25 33.296875 5.15625 32.796875 4.75 
C 29 2.203125 25.296875 1 22.296875 1 
C 17 1 11.40625 4.546875 11.40625 14.375 
C 11.40625 16.296875 11.59375 18.9375 12.5 23 
z
" id="CMMI12-15"/>
      <path d="M 44.59375 40.09375 
C 46.59375 40.09375 47.40625 40.09375 47.40625 41.984375 
C 47.40625 43 46.59375 43 44.796875 43 
L 36.703125 43 
C 38.59375 53.09375 40 60.09375 40.796875 63.296875 
C 41.40625 65.6875 43.5 67.984375 46.09375 67.984375 
C 48.203125 67.984375 50.296875 67.09375 51.296875 66.1875 
C 47.40625 65.796875 46.203125 62.890625 46.203125 61.1875 
C 46.203125 59.1875 47.703125 58 49.59375 58 
C 51.59375 58 54.59375 59.6875 54.59375 63.5 
C 54.59375 67.6875 50.40625 70 46 70 
C 41.703125 70 37.5 66.796875 35.5 62.890625 
C 33.703125 59.390625 32.703125 55.828125 30.40625 43 
L 23.703125 43 
C 21.796875 43 20.796875 43 20.796875 41.1875 
C 20.796875 40.09375 21.40625 40.09375 23.40625 40.09375 
L 29.796875 40.09375 
C 28 30.890625 23.90625 8.515625 21.59375 -2.0625 
C 19.90625 -10.703125 18.40625 -18 13.40625 -18 
C 13.09375 -18 10.203125 -18 8.40625 -16.109375 
C 13.5 -15.703125 13.5 -11.3125 13.5 -11.203125 
C 13.5 -9.203125 12 -8 10.09375 -8 
C 8.09375 -8 5.09375 -9.703125 5.09375 -13.515625 
C 5.09375 -17.8125 9.5 -20 13.40625 -20 
C 23.59375 -20 27.796875 -1.765625 28.90625 3.171875 
C 30.703125 10.796875 35.59375 37.125 36.09375 40.09375 
z
" id="CMMI12-102"/>
      <path d="M 11.296875 -25 
C 16.703125 -19.5 29.09375 -6.6875 29.09375 24.9375 
C 29.09375 56.671875 16.703125 69.375 11.296875 75 
L 5.203125 75 
C 17.5 62.171875 21.5 44.265625 21.5 25.046875 
C 21.5 5.921875 17.703125 -12.09375 5.203125 -25 
z
" id="CMSS17-41"/>
      <path d="M 25.203125 -25 
L 25.203125 -18.90625 
L 16.59375 -18.90625 
L 16.59375 68.890625 
L 25.203125 68.890625 
L 25.203125 75 
L 9.296875 75 
L 9.296875 -25 
z
" id="CMSS17-91"/>
      <path d="M 61.09375 69 
L 53.296875 69 
L 36 21.265625 
C 35.5 19.875 32.40625 10.734375 31.796875 7.5625 
L 31.703125 7.5625 
C 30.90625 11.328125 27.703125 20.171875 26 25.046875 
L 14.40625 57.34375 
L 10.09375 69 
L 1.296875 69 
L 26.796875 0 
L 35.59375 0 
z
" id="CMSS17-86"/>
      <path d="M 17.90625 75 
L 2 75 
L 2 68.890625 
L 10.59375 68.890625 
L 10.59375 -18.90625 
L 2 -18.90625 
L 2 -25 
L 17.90625 -25 
z
" id="CMSS17-93"/>
     </defs>
     <g transform="translate(30.696348 222.523002)rotate(-90)scale(0.16 -0.16)">
      <use transform="translate(0 14.943915)scale(0.996264)" xlink:href="#CMSS17-69"/>
      <use transform="translate(55.892013 14.943915)scale(0.996264)" xlink:href="#CMSS17-110"/>
      <use transform="translate(104.096956 14.943915)scale(0.996264)" xlink:href="#CMSS17-101"/>
      <use transform="translate(145.735778 14.943915)scale(0.996264)" xlink:href="#CMSS17-114"/>
      <use transform="translate(177.645551 14.943915)scale(0.996264)" xlink:href="#CMSS17-103"/>
      <use transform="translate(224.489175 14.943915)scale(0.996264)" xlink:href="#CMSS17-121"/>
      <use transform="translate(298.718429 14.943915)scale(0.996264)" xlink:href="#CMSS17-40"/>
      <use transform="translate(335.152343 14.943915)scale(0.996264)" xlink:href="#CMSS17-69"/>
      <use transform="translate(391.044356 14.943915)scale(0.996264)" xlink:href="#CMSS17-45"/>
      <use transform="translate(422.273469 14.943915)scale(0.996264)" xlink:href="#CMMI12-15"/>
      <use transform="translate(461.662427 0)scale(0.697382)" xlink:href="#CMMI12-102"/>
      <use transform="translate(503.264583 14.943915)scale(0.996264)" xlink:href="#CMSS17-41"/>
      <use transform="translate(570.92761 14.943915)scale(0.996264)" xlink:href="#CMSS17-91"/>
      <use transform="translate(598.113048 14.943915)scale(0.996264)" xlink:href="#CMSS17-101"/>
      <use transform="translate(639.75187 14.943915)scale(0.996264)" xlink:href="#CMSS17-86"/>
      <use transform="translate(701.969725 14.943915)scale(0.996264)" xlink:href="#CMSS17-93"/>
     </g>
    </g>
   </g>
   <g id="line2d_13">
    <path clip-path="url(#p26e478ace9)" d="M 0 0 
" style="fill:none;stroke:#000000;stroke-linecap:square;stroke-width:1.6;"/>
   </g>
   <g id="line2d_14">
    <path clip-path="url(#p26e478ace9)" d="M 0 0 
" style="fill:none;stroke:#000000;stroke-linecap:square;stroke-width:1.6;"/>
   </g>
   <g id="line2d_15">
    <path clip-path="url(#p26e478ace9)" d="M 0 0 
" style="fill:none;stroke:#000000;stroke-linecap:square;stroke-width:1.6;"/>
   </g>
   <g id="line2d_16">
    <path clip-path="url(#p26e478ace9)" d="M 0 0 
" style="fill:none;stroke:#000000;stroke-linecap:square;stroke-width:1.6;"/>
   </g>
   <g id="line2d_17">
    <path clip-path="url(#p26e478ace9)" d="M 0 0 
" style="fill:none;stroke:#000000;stroke-linecap:square;stroke-width:1.6;"/>
   </g>
   <g id="line2d_18">
    <path clip-path="url(#p26e478ace9)" d="M 0 0 
" style="fill:none;stroke:#000000;stroke-linecap:square;stroke-width:1.6;"/>
   </g>
   <g id="line2d_19">
    <path clip-path="url(#p26e478ace9)" d="M 0 0 
" style="fill:none;stroke:#000000;stroke-linecap:square;stroke-width:1.6;"/>
   </g>
   <g id="line2d_20">
    <path clip-path="url(#p26e478ace9)" d="M 0 0 
" style="fill:none;stroke:#000000;stroke-linecap:square;stroke-width:1.6;"/>
   </g>
   <g id="line2d_21">
    <path clip-path="url(#p26e478ace9)" d="M 101.944828 346.6 
L 104.841251 343.731654 
L 109.986298 338.337726 
L 117.699779 329.700424 
L 122.926624 323.840293 
L 138.81983 323.830267 
L 142.230776 326.725242 
L 145.862574 330.043811 
L 157.682277 340.90686 
L 161.314076 343.791809 
L 164.046104 345.701741 
L 165.467967 346.6 
M 253.966117 346.6 
L 255.798085 344.769333 
L 263.69152 344.98489 
L 269.466407 345.398458 
L 275.429426 346.062673 
L 279.0603 346.6 
L 279.0603 346.6 
" style="fill:none;stroke:#000000;stroke-linecap:square;stroke-width:1.6;"/>
   </g>
   <g id="line2d_22">
    <path clip-path="url(#p26e478ace9)" d="M 64.997807 334.783549 
L 68.531449 334.655719 
L 72.06509 334.272229 
L 75.279722 333.708273 
L 78.813364 332.856072 
L 82.347005 331.773276 
L 85.880647 330.469911 
L 89.741477 328.813133 
L 93.921317 326.765345 
L 98.739175 324.113498 
L 105.16026 320.253531 
L 109.986298 317.498919 
L 111.589524 316.829691 
L 112.873741 316.53142 
L 113.838949 316.513875 
L 114.804156 316.719406 
L 115.769364 317.145506 
L 117.053581 318.007732 
L 118.656807 319.41637 
L 120.587222 321.373924 
L 122.926624 323.840293 
L 138.81983 323.830267 
L 142.230776 321.228549 
L 145.641721 318.972724 
L 148.136538 317.559074 
L 150.639534 316.381032 
L 152.455433 315.754414 
L 153.13435 315.694259 
L 157.224213 317.862357 
L 160.864191 319.539187 
L 164.266956 320.87263 
L 167.677902 321.960439 
L 170.630783 322.694835 
L 174.041729 323.291375 
L 177.223642 323.602178 
L 179.96385 323.679878 
L 182.6468 323.817734 
L 185.084358 324.138563 
L 187.284704 324.612286 
L 190.69565 325.765263 
L 194.842771 327.399483 
L 203.873188 330.971205 
L 208.020308 332.344752 
L 211.922037 333.387444 
L 215.341163 334.076724 
L 218.506716 334.510344 
L 221.925842 334.753472 
L 225.050497 334.740939 
L 227.537133 334.465227 
L 229.851996 333.976465 
L 232.510407 333.139304 
L 234.645315 332.262038 
L 237.131952 331.001283 
L 239.618588 329.494893 
L 241.925271 328.093776 
L 252.403499 341.064768 
L 255.601772 344.769333 
L 257.720321 344.659049 
L 260.027003 344.283078 
L 261.957418 343.769251 
L 264.264101 342.917051 
L 266.38265 341.911955 
L 268.304885 340.819134 
L 270.423434 339.428042 
L 272.541983 337.848964 
L 274.856846 335.9265 
L 279.085764 331.953742 
L 286.406618 324.983244 
L 287.748093 324.13355 
L 289.097748 323.584632 
L 290.251089 323.341505 
L 290.251089 323.341505 
" style="fill:none;stroke:#000000;stroke-linecap:square;stroke-width:1.6;"/>
   </g>
   <g id="line2d_23">
    <path clip-path="url(#p26e478ace9)" d="M 64.997807 334.783549 
L 68.531449 334.650706 
L 71.746081 334.304813 
L 75.279722 333.678195 
L 78.813364 332.805943 
L 82.674194 331.585291 
L 86.207836 330.236809 
L 90.379496 328.379513 
L 93.921317 326.602425 
L 98.739175 323.905461 
L 103.876043 320.714722 
L 107.736873 318.143082 
L 114.485147 313.35572 
L 122.926624 307.194812 
L 127.188261 307.305097 
L 131.98158 307.548225 
L 137.04483 307.721171 
L 139.506927 307.849001 
L 140.864762 308.330244 
L 142.688841 309.290223 
L 153.13435 315.614052 
L 154.0423 315.563922 
L 154.958429 315.696765 
L 156.316263 316.152943 
L 158.819259 317.278349 
L 165.183086 320.158285 
L 168.135967 321.281185 
L 170.859815 322.133385 
L 173.812696 322.827678 
L 176.315692 323.208662 
L 178.810508 323.389128 
L 182.401408 323.564581 
L 184.601754 323.928019 
L 188.503483 324.870453 
L 191.677217 325.790328 
L 197.288508 327.795505 
L 207.529525 331.688056 
L 211.922037 333.064109 
L 215.341163 333.896258 
L 218.261325 334.405072 
L 220.952454 334.688303 
L 223.987133 334.781043 
L 226.473769 334.613109 
L 228.608678 334.267216 
L 231.095314 333.623053 
L 233.581951 332.723229 
L 236.240361 331.480019 
L 238.555224 330.169134 
L 241.393589 328.266722 
L 243.880225 326.341752 
L 246.186908 324.344093 
L 248.853498 321.787492 
L 251.520089 318.972724 
L 255.601772 314.275596 
L 259.83887 314.38588 
L 264.264101 314.724254 
L 269.07378 315.323301 
L 274.276085 316.165475 
L 277.163528 316.772042 
L 281.785073 318.050342 
L 287.175512 319.817405 
L 290.251089 320.940305 
L 290.251089 320.940305 
" style="fill:none;stroke:#000000;stroke-linecap:square;stroke-width:1.6;"/>
   </g>
   <g id="line2d_24">
    <path clip-path="url(#p26e478ace9)" d="M 64.997807 311.876902 
L 67.89343 311.774137 
L 70.780873 311.470853 
L 73.995506 310.896871 
L 77.210138 310.084774 
L 80.42477 309.044589 
L 83.958411 307.656003 
L 88.130071 305.738552 
L 92.62892 303.447637 
L 98.739175 300.432351 
L 100.9886 299.560099 
L 102.910835 299.023714 
L 103.557034 298.900897 
L 103.876043 299.011181 
L 109.986298 305.467853 
L 111.589524 306.871477 
L 112.873741 307.746236 
L 113.838949 308.182362 
L 114.804156 308.392906 
L 115.769364 308.372854 
L 116.734571 308.147272 
L 118.018788 307.60838 
L 119.622015 306.675973 
L 120.906231 305.801214 
L 123.016601 307.194812 
L 132.251511 307.560757 
L 137.134807 307.723678 
L 140.414877 307.823937 
L 141.772711 308.197401 
L 143.817643 309.024537 
L 147.228588 310.676302 
L 152.226401 313.090034 
L 153.592415 313.513628 
L 154.729397 313.606368 
L 155.866378 313.476031 
L 158.590227 312.8444 
L 164.266956 311.591164 
L 168.135967 310.979585 
L 171.996797 310.561004 
L 176.08666 310.30785 
L 180.209242 310.237669 
L 185.32975 310.393071 
L 192.159821 310.851755 
L 203.137012 311.525996 
L 212.412821 311.794188 
L 225.050497 312.029797 
L 226.293815 312.403261 
L 227.717087 313.090034 
L 229.14036 314.022442 
L 231.095314 315.634103 
L 233.753725 318.298483 
L 236.068587 320.900201 
L 241.925271 327.875712 
L 244.231953 326.048494 
L 246.898544 323.687398 
L 249.205226 321.42656 
L 251.520089 318.972724 
L 255.601772 314.275596 
L 258.301081 314.17283 
L 259.83887 314.157791 
L 263.298893 314.398413 
L 267.535991 314.884668 
L 271.969403 315.619065 
L 280.239105 317.168064 
L 283.134728 317.468841 
L 284.86065 317.448789 
L 286.210305 317.22822 
L 287.363646 316.829691 
L 288.516987 316.195553 
L 289.678508 315.318288 
L 290.251089 314.796942 
L 290.251089 314.796942 
" style="fill:none;stroke:#000000;stroke-linecap:square;stroke-width:1.6;"/>
   </g>
   <g id="line2d_25">
    <path clip-path="url(#p26e478ace9)" d="M 64.997807 271.585365 
L 67.247232 271.713195 
L 69.496657 272.08666 
L 71.746081 272.700745 
L 73.995506 273.537907 
L 76.563939 274.748533 
L 79.459562 276.407817 
L 82.674194 278.583435 
L 85.880647 281.069855 
L 88.77627 283.541236 
L 92.956109 287.456346 
L 97.773968 292.379057 
L 103.876043 298.848261 
L 105.487449 298.717924 
L 107.090675 298.798131 
L 108.702081 299.091388 
L 110.624316 299.700461 
L 112.554732 300.545142 
L 115.123166 301.951273 
L 117.699779 303.577973 
L 120.906231 305.798707 
L 123.106578 304.349967 
L 130.566487 304.011593 
L 137.486535 303.698284 
L 141.322826 303.492753 
L 143.138725 302.911252 
L 146.778703 301.439953 
L 153.363382 298.717924 
L 158.590227 296.770395 
L 162.909122 295.366771 
L 167.44887 294.141106 
L 171.538732 293.303945 
L 175.17871 292.812676 
L 178.360624 292.607145 
L 182.164196 292.374044 
L 184.110971 291.90784 
L 186.065925 291.201015 
L 188.258091 290.143284 
L 190.458438 288.849944 
L 193.623991 286.651768 
L 196.797725 284.160335 
L 200.699454 280.83174 
L 206.556137 275.600733 
L 208.2657 274.192096 
L 210.94865 273.289766 
L 213.876992 272.562889 
L 217.287937 271.991414 
L 220.216279 271.703169 
L 223.144621 271.587872 
L 224.698769 271.485106 
L 225.762133 271.186836 
L 226.825497 270.698074 
L 228.068816 269.903522 
L 228.24877 269.770679 
L 229.14036 271.307147 
L 236.951998 285.551427 
L 242.636907 295.309122 
L 247.61018 303.14686 
L 251.691863 309.034563 
L 255.421818 313.914664 
L 255.601772 314.05252 
L 260.41145 313.947248 
L 263.298893 313.435927 
L 265.998203 312.746648 
L 268.885646 311.786669 
L 271.773089 310.603614 
L 274.660532 309.19999 
L 277.744289 307.468018 
L 281.58876 304.984104 
L 284.476203 302.903732 
L 287.559959 300.492506 
L 290.251089 298.239188 
L 290.251089 298.239188 
" style="fill:none;stroke:#000000;stroke-linecap:square;stroke-width:1.6;"/>
   </g>
   <g id="line2d_26">
    <path clip-path="url(#p26e478ace9)" d="M 64.997807 264.376752 
L 67.566241 264.507088 
L 69.815666 264.830423 
L 72.06509 265.349263 
L 74.641704 266.171386 
L 77.529147 267.371986 
L 80.42477 268.845791 
L 83.312213 270.562725 
L 86.845854 272.953899 
L 90.060487 275.367631 
L 94.878345 279.325351 
L 99.058185 282.992319 
L 108.055883 291.268689 
L 115.769364 298.339447 
L 120.906231 302.793448 
L 123.016601 304.349967 
L 126.746556 304.242188 
L 138.648056 303.688258 
L 139.277895 303.598025 
L 140.414877 303.202002 
L 141.772711 302.485151 
L 143.817643 301.151708 
L 148.594602 297.672725 
L 154.500364 293.469372 
L 158.819259 290.752356 
L 162.68009 288.679504 
L 165.862003 287.263347 
L 169.043916 286.125409 
L 171.996797 285.328351 
L 174.949678 284.784446 
L 177.902559 284.498709 
L 185.820533 284.047544 
L 188.0127 283.591366 
L 190.213046 282.954722 
L 192.650604 282.052392 
L 195.578946 280.736494 
L 198.752679 279.099768 
L 205.819962 275.257347 
L 208.511092 273.858735 
L 211.922037 270.893579 
L 215.578375 267.973539 
L 218.024113 266.309242 
L 219.725496 265.371821 
L 221.435058 264.707606 
L 222.653837 264.44192 
L 223.807179 264.386778 
L 224.338861 264.562231 
L 225.050497 265.08859 
L 225.942087 266.108724 
L 227.005451 267.667749 
L 228.608678 270.362207 
L 239.618588 290.220984 
L 244.591861 298.47229 
L 248.853498 304.99413 
L 252.935181 310.718912 
L 255.421818 313.914664 
L 255.601772 314.05252 
L 258.104768 313.919677 
L 260.223317 313.603861 
L 262.726313 312.999801 
L 265.613756 312.007238 
L 268.885646 310.543459 
L 272.35385 308.663605 
L 277.163528 305.650826 
L 286.210305 299.63028 
L 289.866642 297.557428 
L 290.251089 297.366936 
L 290.251089 297.366936 
" style="fill:none;stroke:#000000;stroke-linecap:square;stroke-width:1.6;"/>
   </g>
   <g id="line2d_27">
    <path clip-path="url(#p26e478ace9)" d="M 64.997807 264.376752 
L 67.566241 264.482024 
L 70.461864 264.855488 
L 73.349307 265.487119 
L 75.925921 266.254099 
L 78.813364 267.326869 
L 82.347005 268.908453 
L 85.880647 270.725645 
L 90.706685 273.435141 
L 96.170741 276.452934 
L 99.058185 277.78387 
L 100.9886 278.455605 
L 102.591826 278.831576 
L 104.203232 278.999509 
L 105.806458 278.929328 
L 107.409684 278.611006 
L 109.02109 278.044543 
L 110.951506 277.064513 
L 112.873741 275.803757 
L 114.804156 274.314913 
L 117.699779 271.760818 
L 121.23342 268.286848 
L 122.926624 266.63007 
L 128.521556 266.737848 
L 134.206465 266.943379 
L 138.81983 267.018573 
L 142.001744 269.880964 
L 144.954625 272.227022 
L 147.686653 274.134447 
L 150.181469 275.673421 
L 153.13435 277.262524 
L 156.316263 278.718784 
L 159.727209 280.027163 
L 163.588039 281.230269 
L 168.135967 282.310559 
L 171.538732 282.902086 
L 175.17871 283.315654 
L 178.360624 283.4886 
L 180.937237 283.451003 
L 182.892192 283.150227 
L 185.084358 282.576245 
L 187.530096 281.731564 
L 191.914429 279.864242 
L 204.601183 273.913878 
L 207.529525 272.364878 
L 210.703258 270.454946 
L 217.287937 266.404488 
L 219.725496 265.226446 
L 221.435058 264.659983 
L 222.899229 264.409336 
L 223.987133 264.424375 
L 224.518815 264.664996 
L 225.230451 265.264043 
L 226.122041 266.346839 
L 227.897041 269.129023 
L 228.24877 269.740602 
L 228.960406 269.196697 
L 230.383678 267.858241 
L 232.510407 265.436989 
L 234.645315 262.619715 
L 236.951998 259.230965 
L 239.438634 255.29831 
L 242.816861 249.633684 
L 255.601772 227.000242 
L 256.951426 227.095488 
L 258.301081 227.381226 
L 259.83887 227.935156 
L 261.572971 228.842499 
L 263.298893 230.030566 
L 265.032995 231.48432 
L 266.767097 233.173682 
L 268.689333 235.304183 
L 270.619748 237.662774 
L 274.276085 242.64564 
L 281.016179 252.804371 
L 284.476203 258.098039 
L 288.713301 264.17874 
L 290.251089 266.183918 
L 290.251089 266.183918 
" style="fill:none;stroke:#000000;stroke-linecap:square;stroke-width:1.6;"/>
   </g>
   <g id="line2d_28">
    <path clip-path="url(#p26e478ace9)" d="M 64.997807 252.621398 
L 68.850458 252.511113 
L 72.392279 252.225376 
L 76.882949 251.621316 
L 81.708987 250.741544 
L 91.990902 248.736367 
L 94.878345 248.430577 
L 97.127769 248.390474 
L 99.058185 248.543368 
L 100.9886 248.909313 
L 102.910835 249.513373 
L 104.841251 250.370586 
L 106.771666 251.48346 
L 109.02109 253.07507 
L 111.589524 255.223116 
L 114.804156 258.270986 
L 119.949204 263.58972 
L 122.926624 266.63007 
L 128.521556 266.737848 
L 134.206465 266.943379 
L 138.81983 267.018573 
L 141.551859 264.289025 
L 146.320639 258.985331 
L 150.410501 254.075152 
L 157.00336 246.227388 
L 159.048292 244.041745 
L 160.864191 242.287214 
L 163.138154 240.417386 
L 164.725021 239.344616 
L 166.769953 238.259314 
L 168.585852 237.544969 
L 170.630783 236.976 
L 173.133779 236.534861 
L 176.08666 236.256643 
L 179.96385 236.153877 
L 183.137583 236.296746 
L 186.311317 236.690262 
L 189.476871 237.326906 
L 192.895996 238.274353 
L 196.069729 239.38472 
L 200.454062 241.262067 
L 204.363971 243.219622 
L 210.457867 246.691086 
L 217.778721 250.906971 
L 219.970887 251.884496 
L 221.68045 252.400829 
L 223.144621 252.606359 
L 223.987133 252.571269 
L 224.518815 252.318115 
L 225.230451 251.683978 
L 226.122041 250.536014 
L 227.537133 248.184943 
L 229.312134 244.781154 
L 231.978724 239.231825 
L 235.528725 231.461762 
L 241.04186 219.149972 
L 243.880225 212.873766 
L 245.123543 210.191841 
L 245.303497 210.086569 
L 250.808453 218.791546 
L 254.358453 224.832144 
L 255.601772 227.000242 
L 273.695325 227.110527 
L 278.701317 227.40629 
L 281.973207 227.802313 
L 284.672516 228.318646 
L 287.559959 229.120717 
L 290.062955 230.058138 
L 290.251089 230.140851 
L 290.251089 230.140851 
" style="fill:none;stroke:#000000;stroke-linecap:square;stroke-width:1.6;"/>
   </g>
   <g id="line2d_29">
    <path clip-path="url(#p26e478ace9)" d="M 64.997807 252.621398 
L 67.89343 252.493568 
L 70.780873 252.117597 
L 73.676496 251.516044 
L 76.882949 250.608701 
L 80.42477 249.352959 
L 83.958411 247.861608 
L 88.130071 245.81382 
L 91.671892 243.856266 
L 96.170741 241.076588 
L 100.9886 237.765539 
L 105.487449 234.389321 
L 111.589524 229.408961 
L 118.018788 223.756867 
L 123.016601 219.305373 
L 125.944942 219.114881 
L 128.161648 218.761469 
L 130.918216 218.117305 
L 137.576512 216.370294 
L 139.048863 216.315152 
L 139.956812 216.555773 
L 141.322826 217.164846 
L 144.275707 218.804079 
L 148.594602 221.092487 
L 151.318451 222.300607 
L 154.0423 223.255573 
L 156.316263 223.822035 
L 158.590227 224.140357 
L 160.406126 224.190487 
L 162.222025 224.042605 
L 164.046104 223.694205 
L 166.091035 223.087639 
L 167.228017 222.741746 
L 171.538732 223.08012 
L 177.673527 223.310715 
L 180.700025 223.428519 
L 181.918804 223.809503 
L 183.382975 224.508809 
L 186.311317 226.29843 
L 190.941041 229.604466 
L 195.088162 232.830296 
L 200.944846 237.632696 
L 212.658213 247.189874 
L 215.578375 249.307842 
L 218.261325 250.974646 
L 220.216279 251.907054 
L 221.925842 252.435919 
L 223.390013 252.616385 
L 223.987133 252.571269 
L 224.518815 252.318115 
L 225.230451 251.683978 
L 226.122041 250.536014 
L 227.537133 248.184943 
L 229.312134 244.781154 
L 231.978724 239.231825 
L 235.528725 231.461762 
L 241.04186 219.149972 
L 243.880225 212.873766 
L 247.961908 204.354268 
L 250.27677 200.150914 
L 251.520089 198.233463 
L 252.583453 196.869942 
L 253.646817 195.844795 
L 254.538407 195.298384 
L 255.250044 195.087841 
L 256.182532 195.067789 
L 258.489215 195.233216 
L 260.607764 195.574096 
L 262.914446 196.148078 
L 265.417442 196.99276 
L 268.116752 198.138217 
L 270.423434 199.288688 
L 270.807882 199.900267 
L 275.429426 208.229273 
L 280.239105 216.059492 
L 284.288069 221.959727 
L 286.594752 225.050207 
L 290.062955 229.313715 
L 290.251089 229.536791 
L 290.251089 229.536791 
" style="fill:none;stroke:#000000;stroke-linecap:square;stroke-width:1.6;"/>
   </g>
   <g id="line2d_30">
    <path clip-path="url(#p26e478ace9)" d="M 64.997807 191.972296 
L 66.928223 192.087594 
L 68.850458 192.430981 
L 70.780873 192.99995 
L 72.711289 193.781969 
L 74.960713 194.949985 
L 77.529147 196.589218 
L 80.42477 198.767342 
L 83.631222 201.511928 
L 87.173043 204.790394 
L 93.594128 210.815952 
L 96.80876 213.482839 
L 99.058185 215.054396 
L 100.9886 216.147218 
L 102.910835 216.961822 
L 104.522241 217.41048 
L 106.125467 217.648595 
L 107.736873 217.676166 
L 109.659109 217.448077 
L 111.589524 216.959315 
L 113.519939 216.244971 
L 115.769364 215.164681 
L 117.37259 214.254832 
L 117.699779 214.41274 
L 122.836647 219.305373 
L 125.143329 219.200101 
L 127.368215 218.90935 
L 129.944828 218.367952 
L 137.576512 216.370294 
L 139.277895 216.265022 
L 140.414877 216.407891 
L 142.001744 216.871589 
L 151.547483 219.997159 
L 155.179281 220.88445 
L 159.498177 221.726625 
L 164.725021 222.47606 
L 167.228017 222.671565 
L 174.720646 219.786616 
L 176.994609 219.265269 
L 179.039541 219.049713 
L 180.937237 218.879273 
L 182.164196 218.463198 
L 184.110971 217.483168 
L 186.548529 215.994323 
L 189.722262 213.831238 
L 193.623991 210.906185 
L 198.507288 206.925908 
L 209.729871 197.667 
L 212.167429 195.975132 
L 214.850379 194.391042 
L 217.287937 193.260623 
L 219.242892 192.596408 
L 221.189666 192.165295 
L 223.144621 191.979816 
L 224.878723 192.039971 
L 226.473769 192.323202 
L 228.068816 192.82951 
L 229.672042 193.548867 
L 231.267088 194.476262 
L 233.222043 195.884899 
L 235.176997 197.576767 
L 236.951998 199.34383 
L 239.086906 201.729992 
L 242.456953 206.033604 
L 244.943589 209.56021 
L 245.123543 209.823389 
L 245.303497 209.813364 
L 247.430226 205.406986 
L 249.916863 200.749961 
L 251.691863 197.985322 
L 252.935181 196.488959 
L 253.826771 195.711952 
L 254.718361 195.225697 
L 255.421818 195.067789 
L 258.301081 195.05275 
L 265.998203 194.942465 
L 268.116752 194.887323 
L 268.304885 195.070296 
L 270.619748 199.388947 
L 274.856846 201.820225 
L 284.476203 207.597642 
L 287.559959 209.051396 
L 289.678508 209.81587 
L 290.251089 209.988817 
L 290.251089 209.988817 
" style="fill:none;stroke:#000000;stroke-linecap:square;stroke-width:1.6;"/>
   </g>
   <g id="line2d_31">
    <path clip-path="url(#p26e478ace9)" d="M 64.997807 174.695185 
L 67.247232 174.838054 
L 69.177647 175.18144 
L 71.427072 175.825604 
L 73.676496 176.715401 
L 76.24493 177.993702 
L 79.132373 179.720661 
L 81.708987 181.470179 
L 85.561637 184.390218 
L 90.379496 188.423132 
L 94.240326 191.867024 
L 101.307609 198.501656 
L 117.37259 214.104444 
L 117.699779 214.061834 
L 120.587222 212.154408 
L 123.016601 210.49763 
L 126.124896 210.693135 
L 129.494943 211.274637 
L 132.87317 212.13937 
L 137.224784 213.239711 
L 139.048863 213.385086 
L 139.956812 213.282321 
L 141.093794 212.908856 
L 142.688841 212.119318 
L 145.183657 210.54776 
L 147.686653 208.697984 
L 151.089419 205.78045 
L 155.179281 202.161105 
L 159.727209 198.962846 
L 163.817072 196.438829 
L 166.54092 194.997608 
L 169.493801 193.694242 
L 172.225829 192.756822 
L 174.491613 192.185346 
L 176.994609 191.786817 
L 179.497605 191.638935 
L 182.164196 191.541183 
L 185.084358 191.165212 
L 187.767308 190.576191 
L 190.458438 189.759081 
L 193.623991 188.513365 
L 196.552333 187.114754 
L 199.971458 185.219861 
L 204.363971 182.497832 
L 209.239087 179.422391 
L 212.658213 177.522485 
L 214.604987 176.617649 
L 216.805334 175.795526 
L 218.752108 175.256635 
L 220.952454 174.865625 
L 222.899229 174.707717 
L 228.960406 174.479628 
L 232.870315 174.051022 
L 237.311905 173.29908 
L 241.925271 172.248868 
L 246.015133 171.118449 
L 252.763407 168.942832 
L 255.601772 167.950269 
L 255.798085 168.11319 
L 256.566979 169.724851 
L 260.804077 179.322132 
L 263.69152 185.590819 
L 266.578963 191.598832 
L 268.116752 194.689312 
L 268.304885 194.879804 
L 275.429426 194.589053 
L 281.973207 194.145407 
L 288.328854 193.471166 
L 290.251089 193.202974 
L 290.251089 193.202974 
" style="fill:none;stroke:#000000;stroke-linecap:square;stroke-width:1.6;"/>
   </g>
   <g id="line2d_32">
    <path clip-path="url(#p26e478ace9)" d="M 64.997807 160.187725 
L 66.601034 160.323075 
L 68.21244 160.729123 
L 69.815666 161.375793 
L 71.427072 162.235513 
L 73.349307 163.498775 
L 75.598732 165.218214 
L 78.175345 167.418897 
L 82.347005 171.3315 
L 86.526845 175.477204 
L 108.374892 197.644442 
L 115.769364 204.584863 
L 119.949204 208.191676 
L 122.836647 210.49763 
L 125.233306 210.602902 
L 127.629966 210.911198 
L 130.386533 211.480167 
L 138.288148 213.360021 
L 139.277895 213.309892 
L 140.185845 213.016635 
L 141.551859 212.30229 
L 144.046675 210.617941 
L 148.136538 207.534981 
L 154.0423 202.885475 
L 156.545296 200.165953 
L 159.048292 197.19829 
L 163.359007 191.496067 
L 166.311888 187.209999 
L 170.180898 181.259635 
L 173.133779 176.660259 
L 175.628595 173.106082 
L 176.994609 171.534524 
L 178.131591 170.589584 
L 179.039541 170.160977 
L 179.718458 170.060718 
L 184.110971 169.957953 
L 188.0127 169.699786 
L 193.141388 169.123298 
L 197.771112 168.376369 
L 201.918233 167.506623 
L 205.58275 166.539125 
L 209.484479 165.22824 
L 212.658213 163.922368 
L 218.506716 161.308118 
L 220.461671 160.64641 
L 222.171234 160.287984 
L 223.807179 160.187725 
L 226.825497 160.290491 
L 230.383678 160.643903 
L 233.753725 161.195327 
L 237.663634 162.070086 
L 241.573542 163.152882 
L 250.448545 166.115531 
L 255.986219 167.950269 
L 261.572971 168.058047 
L 269.466407 168.481641 
L 281.016179 169.293738 
L 286.791065 169.571956 
L 290.251089 169.64715 
L 290.251089 169.64715 
" style="fill:none;stroke:#000000;stroke-linecap:square;stroke-width:1.6;"/>
   </g>
   <g id="line2d_33">
    <path clip-path="url(#p26e478ace9)" d="M 64.997807 128.077313 
L 66.928223 127.939457 
L 68.850458 127.528396 
L 70.780873 126.854155 
L 72.711289 125.929266 
L 74.960713 124.560733 
L 77.210138 122.906461 
L 79.778572 120.705779 
L 82.674194 117.893517 
L 85.880647 114.417041 
L 88.77627 111.028291 
L 93.275119 105.381209 
L 100.023392 96.345378 
L 122.198628 65.866679 
L 122.926624 65.009465 
L 125.233306 64.904194 
L 128.70151 64.412925 
L 135.621558 63.041885 
L 138.026397 62.818809 
L 138.81983 62.80377 
L 140.414877 64.999439 
L 142.001744 67.568573 
L 143.817643 70.947297 
L 145.862574 75.225845 
L 148.36557 80.953134 
L 151.547483 88.740742 
L 155.866378 99.741647 
L 159.727209 109.689835 
L 166.769953 127.34793 
L 170.630783 136.343657 
L 173.362811 142.090998 
L 174.949678 145.038609 
L 176.536545 147.497458 
L 177.673527 148.808343 
L 178.581476 149.500129 
L 179.268573 149.768321 
L 179.96385 149.818451 
L 181.918804 149.678088 
L 183.865579 149.317156 
L 185.820533 148.745681 
L 188.0127 147.868416 
L 190.213046 146.770581 
L 192.895996 145.173958 
L 195.824338 143.188832 
L 200.21685 139.920393 
L 204.601183 136.579266 
L 209.239087 133.303307 
L 212.412821 131.380843 
L 215.095771 130.03988 
L 217.533329 129.097447 
L 219.488284 128.553543 
L 221.435058 128.210156 
L 223.390013 128.077313 
L 224.878723 128.182585 
L 226.293815 128.561062 
L 227.717087 129.210238 
L 229.14036 130.120088 
L 230.91536 131.603919 
L 232.510407 133.248165 
L 234.285407 135.386185 
L 236.068587 137.817463 
L 239.086906 142.502059 
L 243.700271 150.590444 
L 249.916863 161.561272 
L 251.691863 164.110354 
L 252.935181 165.506459 
L 254.006725 166.348633 
L 254.718361 166.689513 
L 255.421818 166.839902 
L 257.524007 166.792279 
L 260.027003 166.566696 
L 263.11076 166.062895 
L 266.186337 165.343538 
L 269.850854 164.253223 
L 274.079772 162.734301 
L 277.932422 161.140185 
L 281.785073 159.355577 
L 287.559959 156.31272 
L 290.251089 154.741162 
L 290.251089 154.741162 
" style="fill:none;stroke:#000000;stroke-linecap:square;stroke-width:1.6;"/>
   </g>
   <g id="line2d_34">
    <path clip-path="url(#p26e478ace9)" d="M 64.997807 128.077313 
L 66.282024 127.967028 
L 67.566241 127.63868 
L 68.850458 127.104802 
L 70.142855 126.377925 
L 71.746081 125.227454 
L 73.676496 123.533079 
L 75.925921 121.20206 
L 78.494355 118.159203 
L 81.708987 113.910733 
L 85.242628 108.797531 
L 89.422468 102.288223 
L 94.559336 93.738647 
L 100.9886 82.414407 
L 109.3401 66.979552 
L 115.450355 55.439755 
L 121.871439 63.731165 
L 122.926624 65.009465 
L 125.233306 64.904194 
L 128.70151 64.412925 
L 135.621558 63.041885 
L 138.026397 62.818809 
L 138.81983 62.80377 
L 140.643909 60.715879 
L 142.230776 59.189437 
L 144.275707 57.52514 
L 146.999556 55.645286 
L 149.27352 54.256701 
L 150.639534 54.835696 
L 153.363382 55.84831 
L 156.545296 56.778211 
L 160.177094 57.625399 
L 164.725021 58.460054 
L 170.401751 59.219515 
L 174.720646 59.582954 
L 179.497605 59.733342 
L 180.209242 59.785978 
L 180.937237 60.06169 
L 181.673412 60.555465 
L 182.6468 61.502911 
L 183.865579 63.049404 
L 185.32975 65.280164 
L 187.284704 68.661395 
L 189.967654 73.757053 
L 193.623991 81.12608 
L 206.801529 107.804968 
L 210.212475 114.010992 
L 212.895425 118.429902 
L 215.095771 121.633173 
L 217.042546 124.066958 
L 218.506716 125.580867 
L 219.970887 126.771441 
L 221.189666 127.488292 
L 222.416625 127.929431 
L 223.390013 128.069793 
L 225.050497 128.215169 
L 226.293815 128.561062 
L 227.717087 129.210238 
L 229.14036 130.120088 
L 230.91536 131.603919 
L 232.510407 133.248165 
L 234.285407 135.386185 
L 236.068587 137.817463 
L 239.086906 142.502059 
L 243.700271 150.590444 
L 249.916863 161.561272 
L 251.691863 164.110354 
L 252.935181 165.506459 
L 254.006725 166.348633 
L 254.718361 166.689513 
L 255.421818 166.839902 
L 255.601772 166.844915 
L 255.798085 166.681994 
L 256.566979 165.045268 
L 261.761105 152.372546 
L 265.229309 143.577336 
L 282.553967 97.568536 
L 286.594752 86.840836 
L 290.251089 77.331282 
L 290.251089 77.331282 
" style="fill:none;stroke:#000000;stroke-linecap:square;stroke-width:1.6;"/>
   </g>
   <g id="line2d_35">
    <path clip-path="url(#p26e478ace9)" d="M 64.997807 69.110054 
L 66.928223 69.014808 
L 69.177647 68.658889 
L 71.427072 68.042296 
L 73.676496 67.167538 
L 76.24493 65.856653 
L 78.813364 64.22494 
L 81.708987 62.019244 
L 84.59643 59.452617 
L 87.173043 56.906042 
L 91.025694 52.742792 
L 95.524543 47.837626 
L 97.454958 46.02294 
L 98.739175 45.04291 
L 100.023392 44.323552 
L 100.9886 43.997711 
L 101.953807 43.869881 
L 102.910835 43.945075 
L 103.876043 44.213267 
L 105.16026 44.842392 
L 106.452656 45.72467 
L 108.055883 47.100723 
L 110.305307 49.381613 
L 113.519939 53.076152 
L 115.450355 55.427223 
L 122.836647 41.456148 
L 124.881578 41.566433 
L 127.098284 41.919846 
L 130.386533 42.76202 
L 134.468216 43.902465 
L 136.954853 44.351123 
L 138.81983 44.458902 
L 140.643909 47.070646 
L 142.001744 48.742462 
L 143.59679 50.389214 
L 145.183657 51.740203 
L 147.228588 53.128788 
L 149.27352 54.226623 
L 150.410501 53.600005 
L 156.316263 50.429318 
L 162.68009 47.341345 
L 167.44887 45.313609 
L 171.088848 44.032802 
L 174.041729 43.235743 
L 176.536545 42.787085 
L 178.810508 42.589074 
L 180.454633 42.471269 
L 181.182629 42.178012 
L 182.164196 41.52633 
L 183.620187 40.135238 
L 185.32975 38.147605 
L 186.548529 36.613645 
L 187.039312 37.22773 
L 192.159821 44.82234 
L 196.069729 50.156113 
L 198.261896 52.933283 
L 201.435629 56.620304 
L 203.627796 58.926258 
L 206.310746 61.447769 
L 208.748304 63.445427 
L 211.194042 65.147321 
L 213.140817 66.295285 
L 215.578375 67.453276 
L 217.778721 68.235295 
L 219.970887 68.769173 
L 222.171234 69.054911 
L 224.338861 69.100028 
L 226.653723 68.904523 
L 228.960406 68.470903 
L 231.095314 67.86183 
L 233.753725 66.819138 
L 236.068587 65.671174 
L 239.086906 63.843956 
L 242.816861 61.101876 
L 246.71859 57.720645 
L 249.745088 54.803112 
L 255.798085 48.592074 
L 258.104768 48.481789 
L 260.41145 48.178506 
L 262.726313 47.684731 
L 265.417442 46.867621 
L 268.116752 45.789838 
L 271.192329 44.240839 
L 273.507191 42.857266 
L 276.967215 40.423482 
L 279.085764 38.7266 
L 281.400626 36.693852 
L 284.86065 33.282543 
L 287.175512 30.771058 
L 290.251089 27.126648 
L 290.251089 27.126648 
" style="fill:none;stroke:#000000;stroke-linecap:square;stroke-width:1.6;"/>
   </g>
   <g id="line2d_36">
    <path clip-path="url(#p26e478ace9)" d="M 64.997807 14.26594 
L 67.247232 14.148136 
L 69.496657 13.794724 
L 71.427072 13.473895 
L 75.925921 13.639322 
L 78.813364 13.952631 
L 81.381798 14.461445 
L 83.631222 15.135686 
L 85.561637 15.90768 
L 87.811062 17.040605 
L 90.379496 18.597124 
L 97.127769 22.843088 
L 98.420166 23.326837 
L 99.704383 23.554926 
L 100.661411 23.517328 
L 101.626618 23.271694 
L 102.591826 22.815516 
L 103.876043 21.885615 
L 105.16026 20.629873 
L 106.452656 19.105938 
L 108.374892 16.454091 
L 108.702081 16.596959 
L 111.908533 21.812928 
L 115.123166 27.35975 
L 118.656807 33.718669 
L 122.517637 40.854595 
L 122.926624 41.456148 
L 124.881578 41.566433 
L 127.098284 41.919846 
L 130.386533 42.76202 
L 134.468216 43.902465 
L 136.954853 44.351123 
L 138.81983 44.458902 
L 140.643909 41.473694 
L 145.412689 32.751171 
L 148.594602 27.106596 
L 150.639534 23.940922 
L 152.226401 21.898148 
L 153.592415 20.534627 
L 154.729397 19.717517 
L 155.866378 19.201184 
L 156.774328 19.000666 
L 157.91131 18.988134 
L 159.269144 19.261339 
L 160.864191 19.862892 
L 162.68009 20.780261 
L 166.311888 22.888204 
L 170.180898 25.006173 
L 172.446682 26.041346 
L 174.949678 26.913598 
L 176.994609 27.379802 
L 178.810508 27.585332 
L 180.209242 27.74324 
L 180.700025 28.096653 
L 181.673412 29.20702 
L 183.382975 31.638298 
L 186.548529 36.480801 
L 187.039312 35.989533 
L 192.405212 29.314798 
L 195.088162 26.357161 
L 198.016504 23.522341 
L 200.454062 21.47706 
L 203.137012 19.55209 
L 205.819962 17.942935 
L 208.511092 16.622024 
L 209.484479 16.29117 
L 211.922037 16.218482 
L 214.359596 15.95029 
L 217.042546 15.438969 
L 222.416625 14.31607 
L 223.807179 14.278473 
L 224.338861 14.456432 
L 225.050497 14.952714 
L 226.122041 15.997913 
L 238.726998 29.996559 
L 246.015133 37.871893 
L 250.808453 43.233237 
L 255.798085 48.592074 
L 257.524007 48.461737 
L 259.069975 48.170987 
L 260.992211 47.57194 
L 262.726313 46.817492 
L 264.844862 45.621905 
L 267.151544 43.990191 
L 269.07378 42.383543 
L 271.192329 40.373352 
L 273.507191 37.922023 
L 277.547975 33.132155 
L 284.091756 25.254314 
L 285.629544 23.858209 
L 286.791065 23.116293 
L 287.748093 22.767893 
L 288.516987 22.697712 
L 289.294061 22.820529 
L 290.251089 23.24663 
L 290.251089 23.24663 
" style="fill:none;stroke:#000000;stroke-linecap:square;stroke-width:1.6;"/>
   </g>
   <g id="line2d_37">
    <path clip-path="url(#p26e478ace9)" d="M 64.997807 13.461363 
L 71.099883 13.401208 
L 73.349307 12.661798 
L 78.175345 10.709257 
L 80.743779 9.400878 
L 84.59643 7.130015 
L 89.422468 4.345324 
L 91.344703 3.530721 
L 92.956109 3.122166 
L 94.240326 3.024414 
L 95.524543 3.16227 
L 96.80876 3.550773 
L 98.092977 4.19243 
L 99.377194 5.074708 
L 100.661411 6.177555 
L 102.272817 7.826814 
L 104.203232 10.145301 
L 106.452656 13.218235 
L 108.374892 16.098171 
L 108.702081 15.980367 
L 111.589524 11.458692 
L 117.37259 2.247407 
L 119.667994 -1 
M 149.103604 -1 
L 149.731584 -0.366843 
L 155.637346 6.766576 
L 159.727209 11.388511 
L 162.68009 14.371212 
L 165.403938 16.792464 
L 167.906934 18.694876 
L 170.401751 20.268941 
L 172.675714 21.396853 
L 174.720646 22.156314 
L 176.536545 22.620012 
L 178.581476 22.895723 
L 179.96385 22.903243 
L 180.454633 22.657609 
L 181.182629 21.968329 
L 182.401408 20.424342 
L 185.820533 15.962822 
L 187.039312 14.74217 
L 188.0127 14.022813 
L 188.994267 13.551596 
L 189.967654 13.295936 
L 191.186433 13.205703 
L 192.650604 13.318494 
L 194.842771 13.727049 
L 205.337358 15.990393 
L 208.2657 16.256079 
L 209.484479 16.20595 
L 212.412821 15.155738 
L 215.341163 14.373719 
L 217.778721 13.912528 
L 220.707063 13.574154 
L 223.807179 13.461363 
L 225.582179 13.326013 
L 227.365359 12.975107 
L 229.492088 12.285828 
L 231.626996 11.345901 
L 234.645315 9.691629 
L 238.906952 7.012211 
L 244.411907 3.676096 
L 247.430226 2.197278 
L 249.916863 1.269883 
L 252.403499 0.655798 
L 254.358453 0.407657 
L 257.13956 0.357528 
L 263.69152 0.167036 
L 270.619748 -0.306688 
L 277.176257 -1 
M 280.775277 -1 
L 287.559959 15.922718 
L 290.251089 22.965905 
L 290.251089 22.965905 
" style="fill:none;stroke:#000000;stroke-linecap:square;stroke-width:1.6;"/>
   </g>
   <g id="line2d_38">
    <path clip-path="url(#p26e478ace9)" d="M 64.997807 13.461363 
L 67.89343 13.37113 
L 70.461864 13.095418 
L 73.030298 12.574072 
L 74.960713 12.00009 
L 77.529147 10.729309 
L 80.42477 9.014882 
L 83.631222 6.804173 
L 86.526845 4.595972 
L 91.344703 0.638252 
L 93.304037 -1 
M 149.193018 -1 
L 149.731584 -0.472115 
L 151.318451 0.733498 
L 152.913497 1.693477 
L 154.271332 2.287511 
L 155.866378 2.723637 
L 157.682277 2.986817 
L 161.314076 3.437982 
L 163.817072 4.004444 
L 166.998985 4.949384 
L 172.446682 6.513423 
L 174.949678 7.01973 
L 177.902559 7.36061 
L 180.937237 7.415753 
L 184.110971 7.27539 
L 185.575142 6.984639 
L 186.793921 6.483345 
L 187.767308 5.841688 
L 188.748875 4.961917 
L 189.967654 3.560799 
L 191.677217 1.212235 
L 193.151909 -1 
M 206.222668 -1 
L 209.239087 3.164776 
L 211.922037 6.463293 
L 214.114204 8.78178 
L 216.069158 10.503726 
L 217.778721 11.716858 
L 219.242892 12.51893 
L 220.707063 13.080379 
L 222.171234 13.383662 
L 223.987133 13.458857 
L 225.942087 13.273378 
L 227.717087 12.879861 
L 229.492088 12.285828 
L 231.626996 11.345901 
L 234.645315 9.691629 
L 238.906952 7.012211 
L 244.411907 3.676096 
L 247.430226 2.197278 
L 249.916863 1.269883 
L 252.403499 0.655798 
L 254.358453 0.407657 
L 260.223317 -0.023456 
L 262.914446 -0.589919 
L 264.405864 -1 
M 283.820173 -1 
L 285.44141 1.152079 
L 286.594752 2.357692 
L 287.748093 3.194854 
L 288.713301 3.570825 
L 289.482195 3.646019 
L 290.251089 3.535734 
L 290.251089 3.535734 
" style="fill:none;stroke:#000000;stroke-linecap:square;stroke-width:1.6;"/>
   </g>
   <g id="line2d_39">
    <path clip-path="url(#p26e478ace9)" d="M 64.997807 9.315658 
L 66.601034 9.185322 
L 68.21244 8.806845 
L 69.815666 8.197772 
L 71.427072 7.380662 
L 73.349307 6.165023 
L 75.279722 4.723802 
L 77.848156 2.518106 
L 80.42477 0.07179 
L 81.497478 -1 
M 209.777741 -1 
L 212.167429 1.525543 
L 215.341163 4.590959 
L 217.287937 6.250243 
L 219.242892 7.671413 
L 220.952454 8.641417 
L 222.171234 9.102608 
L 223.144621 9.290594 
L 223.987133 9.260516 
L 224.518815 8.989817 
L 225.230451 8.360693 
L 226.293815 7.082392 
L 227.897041 4.786464 
L 231.095314 -0.457076 
L 231.401486 -1 
L 231.401486 -1 
" style="fill:none;stroke:#000000;stroke-linecap:square;stroke-width:1.6;"/>
   </g>
   <g id="line2d_40">
    <path clip-path="url(#p26e478ace9)" d="M 0 0 
" style="fill:none;stroke:#000000;stroke-linecap:square;stroke-width:1.6;"/>
   </g>
   <g id="line2d_41">
    <path clip-path="url(#p26e478ace9)" d="M 122.836647 287.210711 
L 122.836647 36.563515 
" style="fill:none;stroke:#ff0000;stroke-dasharray:2.035,0.88;stroke-dashoffset:0;stroke-width:0.55;"/>
   </g>
   <g id="line2d_42">
    <path clip-path="url(#p26e478ace9)" d="M 138.81983 287.210711 
L 138.81983 36.563515 
" style="fill:none;stroke:#ff0000;stroke-dasharray:2.035,0.88;stroke-dashoffset:0;stroke-width:0.55;"/>
   </g>
   <g id="line2d_43">
    <path clip-path="url(#p26e478ace9)" d="M 179.718458 287.210711 
L 179.718458 36.563515 
" style="fill:none;stroke:#ff0000;stroke-dasharray:2.035,0.88;stroke-dashoffset:0;stroke-width:0.55;"/>
   </g>
   <g id="line2d_44">
    <path clip-path="url(#p26e478ace9)" d="M 223.635404 287.210711 
L 223.635404 36.563515 
" style="fill:none;stroke:#ff0000;stroke-dasharray:2.035,0.88;stroke-dashoffset:0;stroke-width:0.55;"/>
   </g>
   <g id="line2d_45">
    <path clip-path="url(#p26e478ace9)" d="M 255.601772 287.210711 
L 255.601772 36.563515 
" style="fill:none;stroke:#ff0000;stroke-dasharray:2.035,0.88;stroke-dashoffset:0;stroke-width:0.55;"/>
   </g>
   <g id="line2d_46">
    <path clip-path="url(#p26e478ace9)" d="M 64.997807 161.887113 
L 290.251089 161.887113 
" style="fill:none;stroke:#ff0000;stroke-linecap:square;stroke-opacity:0.75;stroke-width:0.55;"/>
   </g>
   <g id="patch_3">
    <path d="M 64.997807 287.210711 
L 64.997807 36.563515 
" style="fill:none;stroke:#000000;stroke-linecap:square;stroke-linejoin:miter;stroke-width:0.8;"/>
   </g>
   <g id="patch_4">
    <path d="M 290.251089 287.210711 
L 290.251089 36.563515 
" style="fill:none;stroke:#000000;stroke-linecap:square;stroke-linejoin:miter;stroke-width:0.8;"/>
   </g>
   <g id="patch_5">
    <path d="M 64.997807 287.210711 
L 290.251089 287.210711 
" style="fill:none;stroke:#000000;stroke-linecap:square;stroke-linejoin:miter;stroke-width:0.8;"/>
   </g>
   <g id="patch_6">
    <path d="M 64.997807 36.563515 
L 290.251089 36.563515 
" style="fill:none;stroke:#000000;stroke-linecap:square;stroke-linejoin:miter;stroke-width:0.8;"/>
   </g>
   <g id="text_15">
    <!-- Band diagram -->
    <defs>
     <path d="M 8.90625 69 
L 8.90625 0 
L 33.796875 0 
C 47.40625 0 57.296875 8.984375 57.296875 18.75 
C 57.296875 26.3125 50.796875 33.984375 39.09375 36.1875 
C 52.09375 39.984375 54.703125 47.484375 54.703125 51.734375 
C 54.703125 60.625 44.90625 69 31.203125 69 
z
M 17 39 
L 17 63.390625 
L 28.5 63.390625 
C 38.796875 63.390625 46.90625 58.15625 46.90625 51.640625 
C 46.90625 45.703125 40.5 39 27.59375 39 
z
M 17 5.59375 
L 17 32.890625 
L 30.296875 32.890625 
C 41.09375 32.890625 49.40625 26.21875 49.40625 18.84375 
C 49.40625 12.0625 42.09375 5.59375 31 5.59375 
z
" id="CMSS17-66"/>
     <path d="M 40.796875 69 
L 33.40625 69 
L 33.40625 38.984375 
C 30.296875 41.59375 25.203125 44 19.59375 44 
C 10.5 44 3.296875 34.046875 3.296875 21.484375 
C 3.296875 8.9375 10.40625 -1 19.296875 -1 
C 26.203125 -1 30.796875 2.6875 33.203125 4.796875 
L 33.203125 -0.203125 
L 40.796875 -0.203125 
z
M 33.203125 13.296875 
C 33.203125 11.875 33.203125 10.359375 30.09375 7.625 
C 28.09375 5.90625 25.703125 5.09375 23.40625 5.09375 
C 18 5.09375 10.90625 9.140625 10.90625 21.390625 
C 10.90625 34.140625 18.90625 37.890625 24.40625 37.890625 
C 28.09375 37.890625 31.09375 36.0625 33.203125 33.03125 
z
" id="CMSS17-100"/>
     <path d="M 15.296875 66 
L 6.90625 66 
L 6.90625 57.59375 
L 15.296875 57.59375 
z
M 14.796875 43 
L 7.40625 43 
L 7.40625 0 
L 14.796875 0 
z
" id="CMSS17-105"/>
     <path d="M 67 29.34375 
C 67 36.078125 65.296875 44 54.09375 44 
C 46.59375 44 42.09375 39.296875 40.09375 36.375 
C 38.296875 41.6875 34.09375 44 28.09375 44 
C 21.296875 44 17 40.09375 14.703125 37.28125 
L 14.703125 43.484375 
L 7.40625 43.484375 
L 7.40625 0 
L 15 0 
L 15 24.3125 
C 15 30.25 17.203125 37.890625 24.296875 37.890625 
C 33.40625 37.890625 33.40625 31.453125 33.40625 28.53125 
L 33.40625 0 
L 41 0 
L 41 24.3125 
C 41 30.25 43.203125 37.890625 50.296875 37.890625 
C 59.40625 37.890625 59.40625 31.453125 59.40625 28.53125 
L 59.40625 0 
L 67 0 
z
" id="CMSS17-109"/>
    </defs>
    <g transform="translate(125.00582 30.563515)scale(0.192 -0.192)">
     <use transform="scale(0.996264)" xlink:href="#CMSS17-66"/>
     <use transform="translate(62.33804 0)scale(0.996264)" xlink:href="#CMSS17-97"/>
     <use transform="translate(107.259961 0)scale(0.996264)" xlink:href="#CMSS17-110"/>
     <use transform="translate(155.464904 0)scale(0.996264)" xlink:href="#CMSS17-100"/>
     <use transform="translate(234.89896 0)scale(0.996264)" xlink:href="#CMSS17-100"/>
     <use transform="translate(283.103903 0)scale(0.996264)" xlink:href="#CMSS17-105"/>
     <use transform="translate(305.284626 0)scale(0.996264)" xlink:href="#CMSS17-97"/>
     <use transform="translate(350.206547 0)scale(0.996264)" xlink:href="#CMSS17-103"/>
     <use transform="translate(397.05017 0)scale(0.996264)" xlink:href="#CMSS17-114"/>
     <use transform="translate(428.959943 0)scale(0.996264)" xlink:href="#CMSS17-97"/>
     <use transform="translate(473.881863 0)scale(0.996264)" xlink:href="#CMSS17-109"/>
    </g>
   </g>
  </g>
  <g id="axes_2">
   <g id="patch_7">
    <path d="M 315.768631 287.210711 
L 440.713583 287.210711 
L 440.713583 36.563515 
L 315.768631 36.563515 
z
" style="fill:none;"/>
   </g>
   <g id="matplotlib.axis_3">
    <g id="xtick_8">
     <g id="line2d_47">
      <g>
       <use style="stroke:#000000;stroke-width:0.8;" x="315.768631" xlink:href="#m9bfcccee23" y="287.210711"/>
      </g>
     </g>
     <g id="text_16">
      <!-- $0$ -->
      <g transform="translate(311.866637 305.2803)scale(0.16 -0.16)">
       <use transform="scale(0.996264)" xlink:href="#CMR17-48"/>
      </g>
     </g>
    </g>
    <g id="xtick_9">
     <g id="line2d_48">
      <g>
       <use style="stroke:#000000;stroke-width:0.8;" x="399.065266" xlink:href="#m9bfcccee23" y="287.210711"/>
      </g>
     </g>
     <g id="text_17">
      <!-- $2$ -->
      <g transform="translate(395.163272 305.2803)scale(0.16 -0.16)">
       <use transform="scale(0.996264)" xlink:href="#CMR17-50"/>
      </g>
     </g>
    </g>
    <g id="text_18">
     <!-- pDOS($\epsilon$) [states/eV] -->
     <defs>
      <path d="M 8.90625 69 
L 8.90625 0 
L 33.5 0 
C 49.90625 0 62.5 15.328125 62.5 33.890625 
C 62.5 53.0625 49.90625 69 33.5 69 
z
M 17.09375 5.59375 
L 17.09375 63.390625 
L 31.296875 63.390625 
C 44.703125 63.390625 54.296875 51.171875 54.296875 33.890625 
C 54.296875 17.3125 44.796875 5.59375 31.296875 5.59375 
z
" id="CMSS17-68"/>
      <path d="M 64 34.390625 
C 64 55.328125 50.296875 71 34.59375 71 
C 18.90625 71 5.203125 55.234375 5.203125 34.390625 
C 5.203125 13.359375 19.09375 -2 34.59375 -2 
C 50.09375 -2 64 13.359375 64 34.390625 
z
M 34.59375 4.296875 
C 23.59375 4.296875 13.59375 16.671875 13.59375 35.703125 
C 13.59375 54.21875 24.203125 64.6875 34.59375 64.6875 
C 45 64.6875 55.59375 54.21875 55.59375 35.703125 
C 55.59375 16.578125 45.5 4.296875 34.59375 4.296875 
z
" id="CMSS17-79"/>
      <path d="M 32.203125 40.984375 
C 26.296875 43.796875 21.703125 44 18.703125 44 
C 11.59375 44 3.09375 41.484375 3.09375 31.390625 
C 3.09375 21.296875 14.09375 19.09375 17.09375 18.484375 
C 21.703125 17.59375 26.796875 16.59375 26.796875 11.59375 
C 26.796875 5.296875 19.59375 5.296875 18.296875 5.296875 
C 14.296875 5.296875 8.796875 6.390625 3.796875 9.984375 
L 2.59375 3.296875 
C 8.296875 0 13.796875 -1 18.40625 -1 
C 30.703125 -1 33.796875 6.5 33.796875 12.1875 
C 33.796875 17.09375 31 20.390625 29.09375 21.890625 
C 25.796875 24.484375 24.59375 24.796875 16.40625 26.484375 
C 15 26.6875 10.09375 27.796875 10.09375 32.296875 
C 10.09375 37.984375 16.40625 37.984375 17.796875 37.984375 
C 24.296875 37.984375 28.296875 35.984375 31 34.484375 
z
" id="CMSS17-115"/>
      <path d="M 41.203125 71.484375 
C 41.703125 72.78125 41.703125 72.984375 41.703125 73.1875 
C 41.703125 74.390625 40.796875 75 40 75 
C 38.796875 75 38.40625 74.1875 38 72.984375 
L 5.703125 -21.5 
C 5.203125 -22.8125 5.203125 -23 5.203125 -23.203125 
C 5.203125 -24.40625 6.09375 -25 6.90625 -25 
C 8.09375 -25 8.5 -24.203125 8.90625 -23 
z
" id="CMSS17-47"/>
     </defs>
     <g transform="translate(310.849158 324.334944)scale(0.16 -0.16)">
      <use transform="scale(0.996264)" xlink:href="#CMSS17-112"/>
      <use transform="translate(48.204943 0)scale(0.996264)" xlink:href="#CMSS17-68"/>
      <use transform="translate(115.747785 0)scale(0.996264)" xlink:href="#CMSS17-79"/>
      <use transform="translate(184.77204 0)scale(0.996264)" xlink:href="#CMSS17-83"/>
      <use transform="translate(236.820556 0)scale(0.996264)" xlink:href="#CMSS17-40"/>
      <use transform="translate(273.254471 0)scale(0.996264)" xlink:href="#CMMI12-15"/>
      <use transform="translate(312.643429 0)scale(0.996264)" xlink:href="#CMSS17-41"/>
      <use transform="translate(380.306456 0)scale(0.996264)" xlink:href="#CMSS17-91"/>
      <use transform="translate(407.491894 0)scale(0.996264)" xlink:href="#CMSS17-115"/>
      <use transform="translate(443.405436 0)scale(0.996264)" xlink:href="#CMSS17-116"/>
      <use transform="translate(477.237003 0)scale(0.996264)" xlink:href="#CMSS17-97"/>
      <use transform="translate(522.158924 0)scale(0.996264)" xlink:href="#CMSS17-116"/>
      <use transform="translate(555.99049 0)scale(0.996264)" xlink:href="#CMSS17-101"/>
      <use transform="translate(597.629312 0)scale(0.996264)" xlink:href="#CMSS17-115"/>
      <use transform="translate(633.542854 0)scale(0.996264)" xlink:href="#CMSS17-47"/>
      <use transform="translate(680.386478 0)scale(0.996264)" xlink:href="#CMSS17-101"/>
      <use transform="translate(722.0253 0)scale(0.996264)" xlink:href="#CMSS17-86"/>
      <use transform="translate(784.243155 0)scale(0.996264)" xlink:href="#CMSS17-93"/>
     </g>
    </g>
   </g>
   <g id="matplotlib.axis_4"/>
   <g id="line2d_49">
    <path clip-path="url(#p11ac5669db)" d="M 328.100683 346.6 
L 329.287675 345.804506 
L 321.934248 343.298034 
L 320.638152 340.791562 
L 320.115049 338.285091 
L 319.798522 335.778619 
L 328.621302 333.272147 
L 324.964579 330.765675 
L 323.731789 328.259203 
L 323.331965 325.752731 
L 335.793142 323.246259 
L 323.623504 320.739787 
L 324.014998 318.233315 
L 327.313545 315.726843 
L 328.40473 313.220371 
L 337.758943 310.713899 
L 325.014557 308.207427 
L 319.601942 305.700955 
L 323.581855 303.194483 
L 319.93846 300.688011 
L 319.432017 298.181539 
L 318.757314 295.675067 
L 318.745653 293.168595 
L 318.882259 290.662123 
L 319.355384 288.155651 
L 320.903035 285.649179 
L 322.832186 283.142707 
L 320.686464 280.636235 
L 321.692688 278.129763 
L 322.302419 275.623291 
L 325.797546 273.116819 
L 320.821405 270.610348 
L 318.680681 268.103876 
L 318.52575 265.597404 
L 317.762752 263.090932 
L 317.417904 258.077988 
L 317.316282 255.571516 
L 319.248764 253.065044 
L 325.164491 250.558572 
L 322.065857 248.0521 
L 321.016319 245.545628 
L 320.874715 243.039156 
L 321.007989 240.532684 
L 322.040868 238.026212 
L 319.543634 235.51974 
L 319.442013 233.013268 
L 319.826843 230.506796 
L 325.830864 228.000324 
L 319.178795 225.493852 
L 338.933425 222.98738 
L 324.673041 220.480908 
L 339.324919 217.974436 
L 320.633154 215.467964 
L 342.115357 212.961492 
L 345.366424 210.45502 
L 321.541088 207.948548 
L 320.594838 205.442077 
L 319.476164 200.429133 
L 319.091334 197.922661 
L 320.388262 195.416189 
L 317.85188 192.909717 
L 316.984095 190.403245 
L 316.720545 187.896773 
L 316.349625 180.377357 
L 315.888245 167.844997 
L 319.683573 165.338525 
L 318.792299 162.832053 
L 318.220051 157.819109 
L 318.023471 155.312637 
L 316.335048 152.806165 
L 316.717629 150.299693 
L 318.359989 147.793221 
L 317.671376 145.286749 
L 317.403244 142.780277 
L 317.17726 137.767334 
L 317.199917 132.75439 
L 317.460136 130.247918 
L 318.866183 127.741446 
L 316.753614 125.234974 
L 316.526047 120.22203 
L 316.415179 105.183198 
L 316.438003 87.637894 
L 316.411098 72.599062 
L 316.443667 70.092591 
L 317.486208 67.586119 
L 330.762025 65.079647 
L 322.061692 62.573175 
L 317.199667 60.066703 
L 318.225049 57.560231 
L 317.970161 52.547287 
L 317.86604 50.040815 
L 319.66025 47.534343 
L 319.581951 45.027871 
L 328.1715 42.521399 
L 317.805234 40.014927 
L 318.057622 35.001983 
L 318.530747 29.989039 
L 319.826843 27.482567 
L 319.203784 24.976095 
L 322.040868 22.469623 
L 322.17914 19.963151 
L 320.691462 17.456679 
L 345.355596 14.950207 
L 330.778685 12.443735 
L 326.19737 9.937263 
L 365.879886 7.430791 
L 337.758943 4.924319 
L 333.918968 2.417848 
L 362.148197 -0.088624 
L 354.52183 -1 
L 354.52183 -1 
" style="fill:none;stroke:#0000ff;stroke-linecap:square;stroke-width:1.5;"/>
   </g>
   <g id="line2d_50">
    <path clip-path="url(#p11ac5669db)" d="M 365.518138 346.6 
L 372.460321 345.804506 
L 340.907555 343.298034 
L 334.826901 340.791562 
L 332.552903 338.285091 
L 331.310117 335.778619 
L 358.197438 333.272147 
L 347.881983 330.765675 
L 345.111536 328.259203 
L 345.425565 325.752731 
L 385.1414 323.246259 
L 347.498818 320.739787 
L 351.269657 318.233315 
L 367.77072 315.726843 
L 369.095137 313.220371 
L 441.313319 310.713899 
L 362.273142 308.207427 
L 337.109229 305.700955 
L 347.662912 303.194483 
L 342.7734 300.688011 
L 332.956059 298.181539 
L 325.906581 295.675067 
L 328.701017 293.168595 
L 325.13772 290.662123 
L 325.847357 288.155651 
L 329.277846 285.649179 
L 401.897351 283.142707 
L 350.103504 280.636235 
L 354.218358 278.129763 
L 346.596715 275.623291 
L 346.771638 273.116819 
L 339.324919 270.610348 
L 338.333689 268.103876 
L 347.263089 265.597404 
L 329.062774 263.090932 
L 328.579653 260.58446 
L 328.313104 258.077988 
L 328.254796 255.571516 
L 334.018924 253.065044 
L 353.601962 250.558572 
L 342.890015 248.0521 
L 336.126328 245.545628 
L 336.09301 243.039156 
L 336.867669 240.532684 
L 340.066259 238.026212 
L 329.854092 235.51974 
L 330.112311 233.013268 
L 332.278024 230.506796 
L 362.214834 228.000324 
L 328.04239 225.493852 
L 382.38095 222.98738 
L 348.945681 220.480908 
L 385.046442 217.974436 
L 338.117118 215.467964 
L 399.814935 212.961492 
L 409.560642 210.45502 
L 347.013199 207.948548 
L 345.180673 205.442077 
L 345.305618 202.935605 
L 346.996539 200.429133 
L 351.419591 197.922661 
L 395.916653 195.416189 
L 367.829028 192.909717 
L 325.664271 190.403245 
L 322.084182 187.896773 
L 320.738525 185.390301 
L 319.860578 182.883829 
L 317.013249 172.857941 
L 316.800593 170.351469 
L 316.897875 167.844997 
L 328.023982 165.338525 
L 324.384835 162.832053 
L 322.792203 160.325581 
L 322.091678 157.819109 
L 321.753494 155.312637 
L 318.647363 152.806165 
L 319.548049 150.299693 
L 323.426924 147.793221 
L 322.205795 145.286749 
L 321.902595 142.780277 
L 321.91334 140.273805 
L 322.16348 137.767334 
L 322.683834 135.260862 
L 323.772938 132.75439 
L 326.62768 130.247918 
L 338.94442 127.741446 
L 321.486695 125.234974 
L 320.020091 122.728502 
L 319.321066 120.22203 
L 318.560901 115.209086 
L 317.998815 107.68967 
L 317.684287 97.663782 
L 317.514695 85.131422 
L 317.546348 77.612006 
L 317.114038 75.105534 
L 317.218409 70.092591 
L 317.990152 67.586119 
L 338.855959 65.079647 
L 327.063655 62.573175 
L 323.738453 60.066703 
L 322.940471 57.560231 
L 320.911365 55.053759 
L 320.3033 52.547287 
L 320.190016 50.040815 
L 328.712928 47.534343 
L 326.222359 45.027871 
L 339.466524 42.521399 
L 321.316187 40.014927 
L 321.016319 37.508455 
L 320.99966 32.495511 
L 321.116275 29.989039 
L 323.506888 27.482567 
L 321.799307 24.976095 
L 324.822975 22.469623 
L 325.703421 19.963151 
L 325.740904 17.456679 
L 348.652476 14.950207 
L 357.152232 12.443735 
L 339.644778 9.937263 
L 364.097338 7.430791 
L 346.271859 4.924319 
L 341.39734 2.417848 
L 396.602184 -0.088624 
L 378.375227 -1 
L 378.375227 -1 
" style="fill:none;stroke:#ff0000;stroke-linecap:square;stroke-width:1.5;"/>
   </g>
   <g id="line2d_51">
    <path clip-path="url(#p11ac5669db)" d="M 335.109591 346.6 
L 337.480682 345.804506 
L 326.07554 343.298034 
L 324.018746 340.791562 
L 323.333381 338.285091 
L 323.020603 335.778619 
L 389.352878 333.272147 
L 365.646656 330.765675 
L 359.416068 328.259203 
L 360.232375 325.752731 
L 421.555357 323.246259 
L 362.181516 320.739787 
L 362.647977 318.233315 
L 400.148122 315.726843 
L 382.8724 313.220371 
L 407.978006 310.713899 
L 390.718943 308.207427 
L 342.873356 305.700955 
L 373.493199 303.194483 
L 354.984687 300.688011 
L 347.737879 298.181539 
L 341.007511 295.675067 
L 356.867191 293.168595 
L 337.192525 290.662123 
L 336.276262 288.155651 
L 340.141226 285.649179 
L 360.84877 283.142707 
L 344.122805 280.636235 
L 352.535766 278.129763 
L 349.370493 275.623291 
L 354.551544 273.116819 
L 346.72166 270.610348 
L 346.72166 268.103876 
L 360.782132 265.597404 
L 322.382384 263.090932 
L 322.115834 260.58446 
L 322.031705 258.077988 
L 322.1175 255.571516 
L 329.279345 253.065044 
L 353.285435 250.558572 
L 342.231972 248.0521 
L 336.059691 245.545628 
L 336.417867 243.039156 
L 338.200415 240.532684 
L 344.947442 238.026212 
L 328.804554 235.51974 
L 328.1715 233.013268 
L 329.304334 230.506796 
L 348.437571 228.000324 
L 329.445938 225.493852 
L 378.42436 222.98738 
L 346.638364 220.480908 
L 399.298496 217.974436 
L 333.877319 215.467964 
L 408.444467 212.961492 
L 419.75615 210.45502 
L 344.25608 207.948548 
L 343.356476 205.442077 
L 343.731311 202.935605 
L 345.272299 200.429133 
L 349.187241 197.922661 
L 395.899994 195.416189 
L 353.41038 192.909717 
L 336.041366 190.403245 
L 332.061952 187.896773 
L 331.31195 185.390301 
L 331.433063 182.883829 
L 332.400303 180.377357 
L 335.093284 177.870885 
L 352.197748 175.364413 
L 347.744543 172.857941 
L 362.694123 170.351469 
L 413.5139 167.844997 
L 369.275057 165.338525 
L 364.415532 162.832053 
L 418.939843 160.325581 
L 328.88202 157.819109 
L 327.981584 155.312637 
L 321.931582 152.806165 
L 323.440418 150.299693 
L 330.411346 147.793221 
L 328.335094 145.286749 
L 327.813824 142.780277 
L 327.850641 140.273805 
L 328.256796 137.767334 
L 329.149569 135.260862 
L 330.981429 132.75439 
L 335.791476 130.247918 
L 356.922166 127.741446 
L 328.493025 125.234974 
L 326.373125 122.728502 
L 325.542658 120.22203 
L 324.590078 115.209086 
L 324.246229 110.196142 
L 323.923705 107.68967 
L 323.895051 105.183198 
L 324.008167 102.676726 
L 323.724459 95.15731 
L 323.765274 92.650838 
L 323.509054 90.144366 
L 323.795095 87.637894 
L 323.597015 85.131422 
L 323.766607 80.118478 
L 323.781767 77.612006 
L 322.101174 75.105534 
L 322.198631 72.599062 
L 322.544312 70.092591 
L 323.072913 67.586119 
L 417.330552 65.079647 
L 366.466295 62.573175 
L 339.10335 60.066703 
L 339.839692 57.560231 
L 333.255926 55.053759 
L 330.638746 52.547287 
L 329.769962 50.040815 
L 330.244753 47.534343 
L 336.054693 45.027871 
L 412.119514 42.521399 
L 322.486505 40.014927 
L 321.969232 37.508455 
L 321.973397 29.989039 
L 324.822975 27.482567 
L 323.227012 24.976095 
L 332.936067 22.469623 
L 331.803233 19.963151 
L 328.154841 17.456679 
L 335.468285 14.950207 
L 344.156124 12.443735 
L 333.735715 9.937263 
L 338.175426 7.430791 
L 336.859339 4.924319 
L 336.942635 2.417848 
L 375.608933 -0.088624 
L 362.851881 -1 
L 362.851881 -1 
" style="fill:none;stroke:#008000;stroke-linecap:square;stroke-width:1.5;"/>
   </g>
   <g id="line2d_52">
    <path clip-path="url(#p11ac5669db)" d="M 315.768631 161.887113 
L 461.8 161.887113 
" style="fill:none;stroke:#ff0000;stroke-linecap:square;stroke-opacity:0.75;stroke-width:0.55;"/>
   </g>
   <g id="patch_8">
    <path d="M 315.768631 287.210711 
L 315.768631 36.563515 
" style="fill:none;stroke:#000000;stroke-linecap:square;stroke-linejoin:miter;stroke-width:0.8;"/>
   </g>
   <g id="patch_9">
    <path d="M 440.713583 287.210711 
L 440.713583 36.563515 
" style="fill:none;stroke:#000000;stroke-linecap:square;stroke-linejoin:miter;stroke-width:0.8;"/>
   </g>
   <g id="patch_10">
    <path d="M 315.768631 287.210711 
L 440.713583 287.210711 
" style="fill:none;stroke:#000000;stroke-linecap:square;stroke-linejoin:miter;stroke-width:0.8;"/>
   </g>
   <g id="patch_11">
    <path d="M 315.768631 36.563515 
L 440.713583 36.563515 
" style="fill:none;stroke:#000000;stroke-linecap:square;stroke-linejoin:miter;stroke-width:0.8;"/>
   </g>
   <g id="text_19">
    <!-- pDOS dist. -->
    <defs>
     <path d="M 17 8 
L 9 8 
L 9 0 
L 17 0 
z
" id="CMSS17-46"/>
    </defs>
    <g transform="translate(336.557501 30.563515)scale(0.192 -0.192)">
     <use transform="scale(0.996264)" xlink:href="#CMSS17-112"/>
     <use transform="translate(48.204943 0)scale(0.996264)" xlink:href="#CMSS17-68"/>
     <use transform="translate(115.747785 0)scale(0.996264)" xlink:href="#CMSS17-79"/>
     <use transform="translate(184.77204 0)scale(0.996264)" xlink:href="#CMSS17-83"/>
     <use transform="translate(268.049669 0)scale(0.996264)" xlink:href="#CMSS17-100"/>
     <use transform="translate(316.254612 0)scale(0.996264)" xlink:href="#CMSS17-105"/>
     <use transform="translate(338.435335 0)scale(0.996264)" xlink:href="#CMSS17-115"/>
     <use transform="translate(374.348877 0)scale(0.996264)" xlink:href="#CMSS17-116"/>
     <use transform="translate(408.180444 0)scale(0.996264)" xlink:href="#CMSS17-46"/>
    </g>
   </g>
   <g id="legend_1">
    <g id="patch_12">
     <path d="M 331.377657 87.206765 
L 433.713583 87.206765 
Q 435.713583 87.206765 435.713583 85.206765 
L 435.713583 43.563515 
Q 435.713583 41.563515 433.713583 41.563515 
L 331.377657 41.563515 
Q 329.377657 41.563515 329.377657 43.563515 
L 329.377657 85.206765 
Q 329.377657 87.206765 331.377657 87.206765 
z
" style="fill:#ffffff;stroke:#cccccc;stroke-linejoin:miter;"/>
    </g>
    <g id="line2d_53">
     <path d="M 333.377657 49.063515 
L 353.377657 49.063515 
" style="fill:none;stroke:#0000ff;stroke-linecap:square;stroke-width:1.5;"/>
    </g>
    <g id="line2d_54"/>
    <g id="text_20">
     <!-- orbital s -->
     <defs>
      <path d="M 44.203125 21.1875 
C 44.203125 33.984375 34.703125 44 23.5 44 
C 12 44 2.703125 33.6875 2.703125 21.1875 
C 2.703125 8.5 12.296875 -1 23.40625 -1 
C 34.796875 -1 44.203125 8.796875 44.203125 21.1875 
z
M 23.5 5.296875 
C 16.40625 5.296875 10.296875 11.09375 10.296875 21.984375 
C 10.296875 33.59375 17.40625 37.890625 23.40625 37.890625 
C 29.90625 37.890625 36.59375 33.1875 36.59375 21.984375 
C 36.59375 10.6875 30.09375 5.296875 23.5 5.296875 
z
" id="CMSS17-111"/>
      <path d="M 14.90625 69 
L 7.5 69 
L 7.5 -0.203125 
L 15.09375 -0.203125 
L 15.09375 4.296875 
C 18.90625 0.59375 23.5 -1 27.59375 -1 
C 37.203125 -1 45 8.734375 45 21.59375 
C 45 33.328125 39 44 30.09375 44 
C 23.796875 44 18.203125 41.390625 14.90625 38.6875 
z
M 15.09375 32.734375 
C 17.296875 35.5625 20.40625 37.890625 24.796875 37.890625 
C 30.703125 37.890625 37.40625 33.53125 37.40625 21.59375 
C 37.40625 8.84375 29.40625 5.09375 23.90625 5.09375 
C 21.90625 5.09375 19.796875 5.59375 17.796875 7.3125 
C 15.09375 9.75 15.09375 11.265625 15.09375 12.6875 
z
" id="CMSS17-98"/>
      <path d="M 14.796875 69 
L 7.40625 69 
L 7.40625 0 
L 14.796875 0 
z
" id="CMSS17-108"/>
     </defs>
     <g transform="translate(361.377657 52.563515)scale(0.1 -0.1)">
      <use transform="scale(0.996264)" xlink:href="#CMSS17-111"/>
      <use transform="translate(44.24117 0)scale(0.996264)" xlink:href="#CMSS17-114"/>
      <use transform="translate(76.150942 0)scale(0.996264)" xlink:href="#CMSS17-98"/>
      <use transform="translate(124.355885 0)scale(0.996264)" xlink:href="#CMSS17-105"/>
      <use transform="translate(146.536608 0)scale(0.996264)" xlink:href="#CMSS17-116"/>
      <use transform="translate(180.368175 0)scale(0.996264)" xlink:href="#CMSS17-97"/>
      <use transform="translate(225.290096 0)scale(0.996264)" xlink:href="#CMSS17-108"/>
      <use transform="translate(278.699931 0)scale(0.996264)" xlink:href="#CMSS17-115"/>
     </g>
    </g>
    <g id="line2d_55">
     <path d="M 333.377657 63.000693 
L 353.377657 63.000693 
" style="fill:none;stroke:#ff0000;stroke-linecap:square;stroke-width:1.5;"/>
    </g>
    <g id="line2d_56"/>
    <g id="text_21">
     <!-- orbital p$_x$ -->
     <defs>
      <path d="M 47.40625 41 
C 44.203125 40.390625 43 37.984375 43 36.09375 
C 43 33.6875 44.90625 32.890625 46.296875 32.890625 
C 49.296875 32.890625 51.40625 35.484375 51.40625 38.1875 
C 51.40625 42.09375 46.59375 44 42.40625 44 
C 36.296875 44 32.90625 38.296875 32 36.390625 
C 29.703125 43.59375 23.5 44 21.703125 44 
C 11.5 44 6.09375 31.140625 6.09375 28.890625 
C 6.09375 28.484375 6.5 27.96875 7.203125 27.96875 
C 8 27.96875 8.203125 28.578125 8.40625 28.984375 
C 11.796875 40.1875 18.5 41.984375 21.40625 41.984375 
C 25.90625 41.984375 26.796875 38.09375 26.796875 35.6875 
C 26.796875 33.484375 26.203125 31.140625 25 26.21875 
L 21.59375 12.15625 
C 20.09375 6.09375 17.203125 1 11.90625 1 
C 11.40625 1 8.90625 1 6.796875 1.96875 
C 10.40625 2.59375 11.203125 5.59375 11.203125 6.796875 
C 11.203125 8.796875 9.703125 10 7.796875 10 
C 5.40625 10 2.796875 7.890625 2.796875 4.6875 
C 2.796875 0.890625 7.5 -1 11.796875 -1 
C 16.59375 -1 20 2.390625 22.09375 6.484375 
C 23.703125 1 28.703125 -1 32.40625 -1 
C 42.59375 -1 48 11.734375 48 14 
C 48 14.515625 47.59375 14.921875 47 14.921875 
C 46.09375 14.921875 46 14.40625 45.703125 13.59375 
C 43 4.6875 37.203125 1 32.703125 1 
C 29.203125 1 27.296875 3.1875 27.296875 7.296875 
C 27.296875 9.484375 27.703125 11.125 29.296875 17.90625 
L 32.796875 31.859375 
C 34.296875 37.890625 37.703125 41.984375 42.296875 41.984375 
C 42.5 41.984375 45.296875 41.984375 47.40625 41 
z
" id="CMMI12-120"/>
     </defs>
     <g transform="translate(361.377657 66.500693)scale(0.1 -0.1)">
      <use transform="translate(0 14.943915)scale(0.996264)" xlink:href="#CMSS17-111"/>
      <use transform="translate(44.24117 14.943915)scale(0.996264)" xlink:href="#CMSS17-114"/>
      <use transform="translate(76.150942 14.943915)scale(0.996264)" xlink:href="#CMSS17-98"/>
      <use transform="translate(124.355885 14.943915)scale(0.996264)" xlink:href="#CMSS17-105"/>
      <use transform="translate(146.536608 14.943915)scale(0.996264)" xlink:href="#CMSS17-116"/>
      <use transform="translate(180.368175 14.943915)scale(0.996264)" xlink:href="#CMSS17-97"/>
      <use transform="translate(225.290096 14.943915)scale(0.996264)" xlink:href="#CMSS17-108"/>
      <use transform="translate(278.699931 14.943915)scale(0.996264)" xlink:href="#CMSS17-112"/>
      <use transform="translate(326.904875 0)scale(0.697382)" xlink:href="#CMMI12-120"/>
     </g>
    </g>
    <g id="line2d_57">
     <path d="M 333.377657 77.769587 
L 353.377657 77.769587 
" style="fill:none;stroke:#008000;stroke-linecap:square;stroke-width:1.5;"/>
    </g>
    <g id="line2d_58"/>
    <g id="text_22">
     <!-- orbital p$_y$ and p$_z$ -->
     <defs>
      <path d="M 26.296875 -10.515625 
C 23.59375 -14.390625 19.703125 -18 14.796875 -18 
C 13.59375 -18 8.796875 -17.796875 7.296875 -12.90625 
C 7.59375 -13.015625 8.09375 -13.015625 8.296875 -13.015625 
C 11.296875 -13.015625 13.296875 -10.40625 13.296875 -8.109375 
C 13.296875 -5.8125 11.40625 -5 9.90625 -5 
C 8.296875 -5 4.796875 -6.203125 4.796875 -11.109375 
C 4.796875 -16.40625 9.09375 -20 14.796875 -20 
C 24.796875 -20 34.90625 -10.515625 37.703125 -0.109375 
L 47.5 38.796875 
C 47.59375 39.296875 47.796875 39.890625 47.796875 40.484375 
C 47.796875 41.984375 46.59375 43 45.09375 43 
C 44.203125 43 42.09375 42.59375 41.296875 39.59375 
L 33.90625 10.265625 
C 33.40625 8.46875 33.40625 8.28125 32.59375 7.171875 
C 30.59375 4.390625 27.296875 1 22.5 1 
C 16.90625 1 16.40625 6.484375 16.40625 9.171875 
C 16.40625 14.859375 19.09375 22.546875 21.796875 29.71875 
C 22.90625 32.609375 23.5 34.015625 23.5 36.015625 
C 23.5 40.203125 20.5 44 15.59375 44 
C 6.40625 44 2.703125 29.53125 2.703125 28.71875 
C 2.703125 28.328125 3.09375 27.828125 3.796875 27.828125 
C 4.703125 27.828125 4.796875 28.234375 5.203125 29.625 
C 7.59375 38 11.40625 41.984375 15.296875 41.984375 
C 16.203125 41.984375 17.90625 41.984375 17.90625 38.703125 
C 17.90625 36.109375 16.796875 33.21875 15.296875 29.421875 
C 10.40625 16.359375 10.40625 13.0625 10.40625 10.671875 
C 10.40625 1.1875 17.203125 -1 22.203125 -1 
C 25.09375 -1 28.703125 -0.109375 32.203125 3.59375 
L 32.296875 3.484375 
C 30.796875 -2.203125 29.796875 -5.609375 26.296875 -10.515625 
z
" id="CMMI12-121"/>
      <path d="M 12.703125 7.59375 
C 17 12.640625 20.5 15.859375 25.5 20.515625 
C 31.5 25.890625 34.09375 28.46875 35.5 30.03125 
C 42.5 37.046875 46 42.390625 46 43.1875 
C 46 44 45.203125 44 45 44 
C 44.296875 44 44.09375 43.59375 43.59375 42.890625 
C 41.09375 38.59375 38.703125 37 36.09375 37 
C 34 37 32.90625 37.546875 31 39.796875 
C 28.90625 42.296875 27.203125 44 24.296875 44 
C 17 44 12.59375 35.390625 12.59375 33.234375 
C 12.59375 32.921875 12.703125 32.296875 13.59375 32.296875 
C 14.40625 32.296875 14.5 32.71875 14.796875 33.4375 
C 16.5 37.296875 21.296875 37.734375 23.203125 37.734375 
C 25.296875 37.734375 27.296875 37.296875 29.40625 36.59375 
C 33.203125 34.984375 34.796875 34.984375 35.796875 34.984375 
C 36.5 34.984375 36.90625 34.984375 37.40625 35.09375 
C 34.09375 31.0625 28.703125 26.09375 24.203125 21.859375 
L 14.09375 12.234375 
C 8 5.9375 4.296875 0.5 4.296875 -0.203125 
C 4.296875 -0.8125 4.796875 -1 5.40625 -1 
C 6 -1 6.09375 -0.90625 6.796875 0.296875 
C 8.40625 2.796875 11.59375 6 15.296875 6 
C 17.40625 6 18.40625 5.5625 20.40625 3.296875 
C 22.296875 1.09375 24 -1 27.203125 -1 
C 37 -1 42.59375 11.296875 42.59375 13.6875 
C 42.59375 14.09375 42.5 14.71875 41.5 14.71875 
C 40.703125 14.71875 40.59375 14.296875 40.296875 13.265625 
C 38.09375 7.1875 32.203125 5.25 28.296875 5.25 
C 26.203125 5.25 24.203125 5.6875 22.09375 6.390625 
C 18.09375 8 17 8 15.703125 8 
C 14.703125 8 13.59375 8 12.703125 7.59375 
z
" id="CMMI12-122"/>
     </defs>
     <g transform="translate(361.377657 81.269587)scale(0.1 -0.1)">
      <use transform="translate(0 14.943915)scale(0.996264)" xlink:href="#CMSS17-111"/>
      <use transform="translate(44.24117 14.943915)scale(0.996264)" xlink:href="#CMSS17-114"/>
      <use transform="translate(76.150942 14.943915)scale(0.996264)" xlink:href="#CMSS17-98"/>
      <use transform="translate(124.355885 14.943915)scale(0.996264)" xlink:href="#CMSS17-105"/>
      <use transform="translate(146.536608 14.943915)scale(0.996264)" xlink:href="#CMSS17-116"/>
      <use transform="translate(180.368175 14.943915)scale(0.996264)" xlink:href="#CMSS17-97"/>
      <use transform="translate(225.290096 14.943915)scale(0.996264)" xlink:href="#CMSS17-108"/>
      <use transform="translate(278.699931 14.943915)scale(0.996264)" xlink:href="#CMSS17-112"/>
      <use transform="translate(326.904875 0)scale(0.697382)" xlink:href="#CMMI12-121"/>
      <use transform="translate(394.429094 14.943915)scale(0.996264)" xlink:href="#CMSS17-97"/>
      <use transform="translate(439.351015 14.943915)scale(0.996264)" xlink:href="#CMSS17-110"/>
      <use transform="translate(487.555958 14.943915)scale(0.996264)" xlink:href="#CMSS17-100"/>
      <use transform="translate(566.990014 14.943915)scale(0.996264)" xlink:href="#CMSS17-112"/>
      <use transform="translate(615.194957 0)scale(0.697382)" xlink:href="#CMMI12-122"/>
     </g>
    </g>
   </g>
  </g>
 </g>
 <defs>
  <clipPath id="p26e478ace9">
   <rect height="250.647196" width="225.253282" x="64.997807" y="36.563515"/>
  </clipPath>
  <clipPath id="p11ac5669db">
   <rect height="250.647196" width="124.944952" x="315.768631" y="36.563515"/>
  </clipPath>
 </defs>
</svg>
