<?xml version="1.0" standalone="no" ?>
<!DOCTYPE svg PUBLIC "-//W3C//DTD SVG 1.1//EN" "http://www.w3.org/Graphics/SVG/1.1/DTD/svg11.dtd">
<svg width="1271px" height="192px" viewBox="0 0 1271 192" style="background-color: #ffffff00" xmlns="http://www.w3.org/2000/svg" xmlns:xlink="http://www.w3.org/1999/xlink" version="1.1" >
<path stroke="transparent" fill="#000000" transform="matrix(0.0666667 0 0 0.0666667 -5.35999 -10.3333)" d="M 1183.45,1515.91 L 1189.45,1526.3 L 940.035,1670.3 L 934.035,1659.91 L 1183.45,1515.91 Z " />
<path stroke="transparent" fill="#000000" transform="matrix(0.0666667 0 0 0.0666667 -5.35999 -10.3333)" d="M 1209.37,1560.8 L 1215.37,1571.2 L 965.955,1715.2 L 959.955,1704.8 L 1209.37,1560.8 Z " />
<path stroke="transparent" fill="#000000" transform="matrix(0.0666667 0 0 0.0666667 -5.35999 -10.3333)" d="M 1235.29,1605.7 L 1241.29,1616.09 L 991.875,1760.09 L 985.875,1749.7 L 1235.29,1605.7 Z " />
<text x="0" y="0" stroke="transparent" fill="#000000" transform="matrix(0.0666667 0 0 0.0666667 87.6313 89.7333)" style="font:normal normal normal 200px 'Arial'" >
Br</text>
<path stroke="transparent" fill="#000000" transform="matrix(0.0666667 0 0 0.0666667 -5.35999 -10.3333)" d="M 1360.31,1474.12 L 1366.28,1484.53 L 1215.36,1571.2 L 1209.38,1560.8 L 1360.31,1474.12 Z " />
<text x="0" y="0" stroke="transparent" fill="#000000" transform="matrix(0.0666667 0 0 0.0666667 3.25334 118.4)" style="font:normal normal normal 200px 'Arial'" >
(RO)</text>
<text x="0" y="0" stroke="transparent" fill="#000000" transform="matrix(0.0666667 0 0 0.0666667 32.2156 121.333)" style="font:normal normal normal 150px 'Arial'" >
2</text>
<text x="0" y="0" stroke="transparent" fill="#000000" transform="matrix(0.0666667 0 0 0.0666667 37.7771 118.4)" style="font:normal normal normal 200px 'Arial'" >
B</text>
<path stroke="transparent" fill="#000000" transform="matrix(0.0666667 0 0 0.0666667 -5.35999 -10.3333)" d="M 796.717,1812.39 L 790.741,1801.98 L 959.967,1704.8 L 965.943,1715.2 L 796.717,1812.39 Z " />
<path stroke="transparent" fill="#000000" transform="matrix(0.0666667 0 0 0.0666667 -5.35999 -10.3333)" d="M 3356.4,1701 L 2552.96,1701 L 2552.96,1689 L 3356.4,1689 Z " />
<path stroke="transparent" fill="#000000" transform="matrix(0.0666667 0 0 0.0666667 -5.35999 -10.3333)" d="M 3512.96,1695 C 3512.96,1695 3332.96,1741 3332.96,1741 C 3332.96,1741 3355.4,1715.13 3355.4,1695 C 3355.4,1674.43 3332.96,1648 3332.96,1648 C 3332.96,1648 3512.96,1695 3512.96,1695 C 3512.96,1695 3512.96,1695 3512.96,1695 " />
<path stroke="#000000" stroke-width="1" fill="transparent" transform="matrix(0.0666667 0 0 0.0666667 -5.35999 -10.3333)" d="M 3512.96,1695 C 3512.96,1695 3332.96,1741 3332.96,1741 C 3332.96,1741 3355.4,1715.13 3355.4,1695 C 3355.4,1674.43 3332.96,1648 3332.96,1648 C 3332.96,1648 3512.96,1695 3512.96,1695 C 3512.96,1695 3512.96,1695 3512.96,1695 " />
<text x="0" y="0" stroke="transparent" fill="#000000" transform="matrix(0.0666667 0 0 0.0666667 116.829 15.0333)" style="font:normal normal normal 200px 'Arial'" >
H</text>
<text x="0" y="0" stroke="transparent" fill="#000000" transform="matrix(0.0666667 0 0 0.0666667 126.458 17.9667)" style="font:normal normal normal 150px 'Arial'" >
2</text>
<text x="0" y="0" stroke="transparent" fill="#000000" transform="matrix(0.0666667 0 0 0.0666667 132.019 15.0333)" style="font:normal normal normal 200px 'Arial'" >
CX</text>
<text x="0" y="0" stroke="transparent" fill="#000000" transform="matrix(0.0666667 0 0 0.0666667 150.541 17.9667)" style="font:normal normal normal 150px 'Arial'" >
2</text>
<text x="0" y="0" stroke="transparent" fill="#000000" transform="matrix(0.0666667 0 0 0.0666667 137.466 51.1)" style="font:normal normal normal 200px 'Arial'" >
Base</text>
<path stroke="transparent" fill="#000000" transform="matrix(0.0666667 0 0 0.0666667 -5.35999 -10.3333)" d="M 4365.82,1873.61 L 4359.82,1884 L 4353.82,1882.39 L 4353.82,1597.61 L 4359.82,1596 L 4365.82,1606.39 L 4365.82,1873.61 Z " />
<path stroke="transparent" fill="#000000" transform="matrix(0.0666667 0 0 0.0666667 -5.35999 -10.3333)" d="M 4417.66,1794.21 L 4405.66,1794.21 L 4405.66,1685.79 L 4417.66,1685.79 L 4417.66,1794.21 Z " />
<path stroke="transparent" fill="#000000" transform="matrix(0.0666667 0 0 0.0666667 -5.35999 -10.3333)" d="M 4597.23,1740 L 4609.23,1740 L 4608.23,1747.51 L 4364.21,1888.39 L 4359.82,1884 L 4365.82,1873.61 L 4597.23,1740 Z " />
<path stroke="transparent" fill="#000000" transform="matrix(0.0666667 0 0 0.0666667 -5.35999 -10.3333)" d="M 4365.82,1606.39 L 4359.82,1596 L 4364.21,1591.61 L 4608.6,1732.71 L 4609.23,1740 L 4597.23,1740 L 4365.82,1606.39 Z " />
<text x="0" y="0" stroke="transparent" fill="#000000" transform="matrix(0.0666667 0 0 0.0666667 236.744 137.037)" style="font:normal normal normal 200px 'Arial'" >
(RO)</text>
<text x="0" y="0" stroke="transparent" fill="#000000" transform="matrix(0.0666667 0 0 0.0666667 265.706 139.97)" style="font:normal normal normal 150px 'Arial'" >
2</text>
<text x="0" y="0" stroke="transparent" fill="#000000" transform="matrix(0.0666667 0 0 0.0666667 271.268 137.037)" style="font:normal normal normal 200px 'Arial'" >
B</text>
<path stroke="transparent" fill="#000000" transform="matrix(0.0666667 0 0 0.0666667 -5.35999 -10.3333)" d="M 4269.89,2051.75 L 4259.5,2045.75 L 4353.82,1882.39 L 4359.82,1884 L 4364.21,1888.39 L 4269.89,2051.75 Z " />
<text x="0" y="0" stroke="transparent" fill="#000000" transform="matrix(0.0666667 0 0 0.0666667 264.601 84.6967)" style="font:normal normal normal 200px 'Arial'" >
Br</text>
<path stroke="transparent" fill="#000000" transform="matrix(0.0666667 0 0 0.0666667 -5.35999 -10.3333)" d="M 4256.1,1428.35 L 4266.49,1422.35 L 4364.21,1591.61 L 4359.82,1596 L 4353.82,1597.61 L 4256.1,1428.35 Z " />
<text x="0" y="0" stroke="transparent" fill="#000000" transform="matrix(0.0666667 0 0 0.0666667 315.037 95.8667)" style="font:normal normal normal 200px 'Arial'" >
H</text>
<path stroke="transparent" fill="#000000" transform="matrix(0.0666667 0 0 0.0666667 -5.35999 -10.3333)" d="M 4779.25,1589.82 L 4786.96,1599.02 L 4618.09,1740.41 L 4609.23,1740 L 4608.6,1732.71 L 4779.25,1589.82 Z " />
<text x="0" y="0" stroke="transparent" fill="#000000" transform="matrix(0.0666667 0 0 0.0666667 311.404 124.867)" style="font:normal normal normal 200px 'Arial'" >
X</text>
<path stroke="transparent" fill="#000000" transform="matrix(0.0666667 0 0 0.0666667 -5.35999 -10.3333)" d="M 4739.16,1862.22 L 4730.65,1870.68 L 4608.23,1747.51 L 4609.23,1740 L 4618.09,1740.41 L 4739.16,1862.22 Z " />
<text x="0" y="0" stroke="transparent" fill="#000000" transform="matrix(0.0666667 0 0 0.0666667 123.037 102.867)" style="font:normal normal normal 200px 'Arial'" >
C</text>
<text x="0" y="0" stroke="transparent" fill="#000000" transform="matrix(0.0666667 0 0 0.0666667 140.031 93.2667)" style="font:normal normal normal 200px 'Arial'" >
X</text>
<path stroke="transparent" fill="#000000" transform="matrix(0.0666667 0 0 0.0666667 -5.35999 -10.3333)" d="M 2136.37,1533.16 L 2142.37,1543.55 L 2087.08,1575.47 L 2081.08,1565.08 L 2136.37,1533.16 Z " />
<text x="0" y="0" stroke="transparent" fill="#000000" transform="matrix(0.0666667 0 0 0.0666667 123.037 122)" style="font:normal normal normal 200px 'Arial'" >
H</text>
<path stroke="transparent" fill="#000000" transform="matrix(0.0666667 0 0 0.0666667 -5.35999 -10.3333)" d="M 2003.95,1812.17 L 1991.96,1812.17 L 1991.96,1731.83 L 2003.95,1731.83 L 2003.95,1812.17 Z " />
<path stroke="transparent" fill="#000000" transform="matrix(0.0666667 0 0 0.0666667 -5.35999 -10.3333)" d="M 1863.71,1508.74 A 16.6666,16.6666 0 1 0 1897.04,1508.74A 16.6666,16.6666 0 1 0 1863.71,1508.74Z " />
<path stroke="transparent" fill="#000000" transform="matrix(0.0666667 0 0 0.0666667 -5.35999 -10.3333)" d="M 1826.21,1573.69 A 16.6666,16.6666 0 1 0 1859.54,1573.69A 16.6666,16.6666 0 1 0 1826.21,1573.69Z " />
<text x="0" y="0" stroke="transparent" fill="#000000" transform="matrix(0.0666667 0 0 0.0666667 99.837 150.667)" style="font:normal normal normal 200px 'Arial'" >
CARBENE</text>
<path stroke="transparent" fill="#000000" transform="matrix(0.0666667 0 0 0.0666667 -5.35999 -10.3333)" d="M 2051.96,1073.44 L 2051.96,600 L 2063.96,600 L 2063.96,1073.44 Z " />
<path stroke="transparent" fill="#000000" transform="matrix(0.0666667 0 0 0.0666667 -5.35999 -10.3333)" d="M 2057.96,1230 C 2057.96,1230 2010.96,1050 2010.96,1050 C 2010.96,1050 2037.38,1072.44 2057.96,1072.44 C 2078.09,1072.44 2103.95,1050 2103.95,1050 C 2103.95,1050 2057.96,1230 2057.96,1230 C 2057.96,1230 2057.96,1230 2057.96,1230 " />
<path stroke="#000000" stroke-width="1" fill="transparent" transform="matrix(0.0666667 0 0 0.0666667 -5.35999 -10.3333)" d="M 2057.96,1230 C 2057.96,1230 2010.96,1050 2010.96,1050 C 2010.96,1050 2037.38,1072.44 2057.96,1072.44 C 2078.09,1072.44 2103.95,1050 2103.95,1050 C 2103.95,1050 2057.96,1230 2057.96,1230 C 2057.96,1230 2057.96,1230 2057.96,1230 " />
<path stroke="transparent" fill="#000000" transform="matrix(0.0666667 0 0 0.0666667 -5.35999 -10.3333)" d="M 6041.4,1701 L 5237.96,1701 L 5237.96,1689 L 6041.4,1689 Z " />
<path stroke="transparent" fill="#000000" transform="matrix(0.0666667 0 0 0.0666667 -5.35999 -10.3333)" d="M 6197.96,1695 C 6197.96,1695 6017.96,1741 6017.96,1741 C 6017.96,1741 6040.4,1715.13 6040.4,1695 C 6040.4,1674.43 6017.96,1648 6017.96,1648 C 6017.96,1648 6197.96,1695 6197.96,1695 C 6197.96,1695 6197.96,1695 6197.96,1695 " />
<path stroke="#000000" stroke-width="1" fill="transparent" transform="matrix(0.0666667 0 0 0.0666667 -5.35999 -10.3333)" d="M 6197.96,1695 C 6197.96,1695 6017.96,1741 6017.96,1741 C 6017.96,1741 6040.4,1715.13 6040.4,1695 C 6040.4,1674.43 6017.96,1648 6017.96,1648 C 6017.96,1648 6197.96,1695 6197.96,1695 C 6197.96,1695 6197.96,1695 6197.96,1695 " />
<text x="0" y="0" stroke="transparent" fill="#000000" transform="matrix(0.0666667 0 0 0.0666667 357.466 94.1)" style="font:normal normal normal 200px 'Arial'" >
Base</text>
<path stroke="transparent" fill="#000000" transform="matrix(0.0666667 0 0 0.0666667 -5.35999 -10.3333)" d="M 7125.82,1768.61 L 7119.82,1779 L 7113.82,1777.39 L 7113.82,1492.61 L 7119.82,1491 L 7125.82,1501.39 L 7125.82,1768.61 Z " />
<path stroke="transparent" fill="#000000" transform="matrix(0.0666667 0 0 0.0666667 -5.35999 -10.3333)" d="M 7177.66,1689.21 L 7165.66,1689.21 L 7165.66,1580.79 L 7177.66,1580.79 L 7177.66,1689.21 Z " />
<path stroke="transparent" fill="#000000" transform="matrix(0.0666667 0 0 0.0666667 -5.35999 -10.3333)" d="M 7357.23,1635 L 7381.23,1635 L 7124.21,1783.39 L 7119.82,1779 L 7125.82,1768.61 L 7357.23,1635 Z " />
<path stroke="transparent" fill="#000000" transform="matrix(0.0666667 0 0 0.0666667 -5.35999 -10.3333)" d="M 7125.82,1501.39 L 7119.82,1491 L 7124.21,1486.61 L 7381.23,1635 L 7357.23,1635 L 7125.82,1501.39 Z " />
<text x="0" y="0" stroke="transparent" fill="#000000" transform="matrix(0.0666667 0 0 0.0666667 420.744 130.037)" style="font:normal normal normal 200px 'Arial'" >
(RO)</text>
<text x="0" y="0" stroke="transparent" fill="#000000" transform="matrix(0.0666667 0 0 0.0666667 449.706 132.97)" style="font:normal normal normal 150px 'Arial'" >
2</text>
<text x="0" y="0" stroke="transparent" fill="#000000" transform="matrix(0.0666667 0 0 0.0666667 455.268 130.037)" style="font:normal normal normal 200px 'Arial'" >
B</text>
<path stroke="transparent" fill="#000000" transform="matrix(0.0666667 0 0 0.0666667 -5.35999 -10.3333)" d="M 7029.89,1946.75 L 7019.5,1940.75 L 7113.82,1777.39 L 7119.82,1779 L 7124.21,1783.39 L 7029.89,1946.75 Z " />
<text x="0" y="0" stroke="transparent" fill="#000000" transform="matrix(0.0666667 0 0 0.0666667 448.601 77.6967)" style="font:normal normal normal 200px 'Arial'" >
Br</text>
<path stroke="transparent" fill="#000000" transform="matrix(0.0666667 0 0 0.0666667 -5.35999 -10.3333)" d="M 7016.1,1323.35 L 7026.49,1317.35 L 7124.21,1486.61 L 7119.82,1491 L 7113.82,1492.61 L 7016.1,1323.35 Z " />
<path stroke="transparent" fill="#000000" transform="matrix(0.0666667 0 0 0.0666667 -5.35999 -10.3333)" d="M 7510.13,1672.5 A 16.6667,16.6667 0 1 0 7543.46,1672.5A 16.6667,16.6667 0 1 0 7510.13,1672.5Z " />
<path stroke="transparent" fill="#000000" transform="matrix(0.0666667 0 0 0.0666667 -5.35999 -10.3333)" d="M 7510.13,1597.5 A 16.6667,16.6667 0 1 0 7543.46,1597.5A 16.6667,16.6667 0 1 0 7510.13,1597.5Z " />
<text x="0" y="0" stroke="transparent" fill="#000000" transform="matrix(0.0666667 0 0 0.0666667 428.837 159.667)" style="font:normal normal normal 200px 'Arial'" >
CARBENE</text>
<path stroke="#000000" stroke-width="12" fill="transparent" transform="matrix(0.0666667 0 0 0.0666667 -5.35999 -10.3333)" d="M 7640.84,1005 L 7727.96,1005 " />
<path stroke="#000000" stroke-width="12" fill="transparent" transform="matrix(0.0666667 0 0 0.0666667 -5.35999 -10.3333)" d="M 7727.96,1005 L 7727.96,2205 " />
<path stroke="#000000" stroke-width="12" fill="transparent" transform="matrix(0.0666667 0 0 0.0666667 -5.35999 -10.3333)" d="M 7727.96,2205 L 7640.84,2205 " />
<path stroke="#000000" stroke-width="12" fill="transparent" transform="matrix(0.0666667 0 0 0.0666667 -5.35999 -10.3333)" d="M 6390.07,2205 L 6302.96,2205 " />
<path stroke="#000000" stroke-width="12" fill="transparent" transform="matrix(0.0666667 0 0 0.0666667 -5.35999 -10.3333)" d="M 6302.96,2205 L 6302.96,1005 " />
<path stroke="#000000" stroke-width="12" fill="transparent" transform="matrix(0.0666667 0 0 0.0666667 -5.35999 -10.3333)" d="M 6302.96,1005 L 6390.07,1005 " />
<path stroke="transparent" fill="#000000" transform="matrix(0.0666667 0 0 0.0666667 -5.35999 -10.3333)" d="M 8846.4,1656 L 8042.96,1656 L 8042.96,1644 L 8846.4,1644 Z " />
<path stroke="transparent" fill="#000000" transform="matrix(0.0666667 0 0 0.0666667 -5.35999 -10.3333)" d="M 9002.96,1650 C 9002.96,1650 8822.96,1696 8822.96,1696 C 8822.96,1696 8845.4,1670.13 8845.4,1650 C 8845.4,1629.43 8822.96,1603 8822.96,1603 C 8822.96,1603 9002.96,1650 9002.96,1650 C 9002.96,1650 9002.96,1650 9002.96,1650 " />
<path stroke="#000000" stroke-width="1" fill="transparent" transform="matrix(0.0666667 0 0 0.0666667 -5.35999 -10.3333)" d="M 9002.96,1650 C 9002.96,1650 8822.96,1696 8822.96,1696 C 8822.96,1696 8845.4,1670.13 8845.4,1650 C 8845.4,1629.43 8822.96,1603 8822.96,1603 C 8822.96,1603 9002.96,1650 9002.96,1650 C 9002.96,1650 9002.96,1650 9002.96,1650 " />
<path stroke="transparent" fill="#000000" transform="matrix(0.0666667 0 0 0.0666667 -5.35999 -10.3333)" d="M 8893.45,1035.91 L 8899.45,1046.3 L 8650.03,1190.3 L 8644.04,1179.91 L 8893.45,1035.91 Z " />
<path stroke="transparent" fill="#000000" transform="matrix(0.0666667 0 0 0.0666667 -5.35999 -10.3333)" d="M 8919.37,1080.8 L 8925.37,1091.2 L 8675.95,1235.2 L 8669.96,1224.8 L 8919.37,1080.8 Z " />
<path stroke="transparent" fill="#000000" transform="matrix(0.0666667 0 0 0.0666667 -5.35999 -10.3333)" d="M 8945.29,1125.7 L 8951.29,1136.09 L 8701.87,1280.09 L 8695.88,1269.7 L 8945.29,1125.7 Z " />
<text x="0" y="0" stroke="transparent" fill="#000000" transform="matrix(0.0666667 0 0 0.0666667 601.631 57.7333)" style="font:normal normal normal 200px 'Arial'" >
Br</text>
<path stroke="transparent" fill="#000000" transform="matrix(0.0666667 0 0 0.0666667 -5.35999 -10.3333)" d="M 9070.31,994.121 L 9076.28,1004.53 L 8925.36,1091.2 L 8919.38,1080.8 L 9070.31,994.121 Z " />
<text x="0" y="0" stroke="transparent" fill="#000000" transform="matrix(0.0666667 0 0 0.0666667 517.253 86.4)" style="font:normal normal normal 200px 'Arial'" >
(RO)</text>
<text x="0" y="0" stroke="transparent" fill="#000000" transform="matrix(0.0666667 0 0 0.0666667 546.216 89.3333)" style="font:normal normal normal 150px 'Arial'" >
2</text>
<text x="0" y="0" stroke="transparent" fill="#000000" transform="matrix(0.0666667 0 0 0.0666667 551.777 86.4)" style="font:normal normal normal 200px 'Arial'" >
B</text>
<path stroke="transparent" fill="#000000" transform="matrix(0.0666667 0 0 0.0666667 -5.35999 -10.3333)" d="M 8506.72,1332.39 L 8500.74,1321.98 L 8669.97,1224.8 L 8675.94,1235.2 L 8506.72,1332.39 Z " />
<path stroke="transparent" fill="#000000" transform="matrix(0.0666667 0 0 0.0666667 -5.35999 -10.3333)" d="M 9724.69,1903.61 L 9718.69,1914 L 9712.69,1912.39 L 9712.69,1627.61 L 9718.69,1626 L 9724.69,1636.39 L 9724.69,1903.61 Z " />
<path stroke="transparent" fill="#000000" transform="matrix(0.0666667 0 0 0.0666667 -5.35999 -10.3333)" d="M 9776.53,1824.21 L 9764.53,1824.21 L 9764.53,1715.79 L 9776.53,1715.79 L 9776.53,1824.21 Z " />
<path stroke="transparent" fill="#000000" transform="matrix(0.0666667 0 0 0.0666667 -5.35999 -10.3333)" d="M 9956.1,1770 L 9968.1,1770 L 9968.1,1776.93 L 9723.08,1918.39 L 9718.69,1914 L 9724.69,1903.61 L 9956.1,1770 Z " />
<path stroke="transparent" fill="#000000" transform="matrix(0.0666667 0 0 0.0666667 -5.35999 -10.3333)" d="M 9724.69,1636.39 L 9718.69,1626 L 9723.08,1621.61 L 9968.1,1763.07 L 9968.1,1770 L 9956.1,1770 L 9724.69,1636.39 Z " />
<text x="0" y="0" stroke="transparent" fill="#000000" transform="matrix(0.0666667 0 0 0.0666667 594.002 139.037)" style="font:normal normal normal 200px 'Arial'" >
(RO)</text>
<text x="0" y="0" stroke="transparent" fill="#000000" transform="matrix(0.0666667 0 0 0.0666667 622.964 141.97)" style="font:normal normal normal 150px 'Arial'" >
2</text>
<text x="0" y="0" stroke="transparent" fill="#000000" transform="matrix(0.0666667 0 0 0.0666667 628.526 139.037)" style="font:normal normal normal 200px 'Arial'" >
B</text>
<path stroke="transparent" fill="#000000" transform="matrix(0.0666667 0 0 0.0666667 -5.35999 -10.3333)" d="M 9628.77,2081.75 L 9618.37,2075.75 L 9712.69,1912.39 L 9718.69,1914 L 9723.08,1918.39 L 9628.77,2081.75 Z " />
<text x="0" y="0" stroke="transparent" fill="#000000" transform="matrix(0.0666667 0 0 0.0666667 621.859 86.6967)" style="font:normal normal normal 200px 'Arial'" >
Br</text>
<path stroke="transparent" fill="#000000" transform="matrix(0.0666667 0 0 0.0666667 -5.35999 -10.3333)" d="M 9614.97,1458.35 L 9625.36,1452.35 L 9723.08,1621.61 L 9718.69,1626 L 9712.69,1627.61 L 9614.97,1458.35 Z " />
<path stroke="transparent" fill="#000000" transform="matrix(0.0666667 0 0 0.0666667 -5.35999 -10.3333)" d="M 10211.5,1903.61 L 10217.5,1914 L 10213.1,1918.39 L 9968.1,1776.93 L 9968.1,1770 L 9980.1,1770 L 10211.5,1903.61 Z " />
<path stroke="transparent" fill="#000000" transform="matrix(0.0666667 0 0 0.0666667 -5.35999 -10.3333)" d="M 10211.5,1636.39 L 10217.5,1626 L 10223.5,1627.61 L 10223.5,1912.39 L 10217.5,1914 L 10211.5,1903.61 L 10211.5,1636.39 Z " />
<path stroke="transparent" fill="#000000" transform="matrix(0.0666667 0 0 0.0666667 -5.35999 -10.3333)" d="M 10159.7,1715.79 L 10171.7,1715.79 L 10171.7,1824.21 L 10159.7,1824.21 L 10159.7,1715.79 Z " />
<path stroke="transparent" fill="#000000" transform="matrix(0.0666667 0 0 0.0666667 -5.35999 -10.3333)" d="M 9980.1,1770 L 9968.1,1770 L 9968.1,1763.07 L 10213.1,1621.61 L 10217.5,1626 L 10211.5,1636.39 L 9980.1,1770 Z " />
<text x="0" y="0" stroke="transparent" fill="#000000" transform="matrix(0.0666667 0 0 0.0666667 680.941 86.6967)" style="font:normal normal normal 200px 'Arial'" >
B(OR)</text>
<text x="0" y="0" stroke="transparent" fill="#000000" transform="matrix(0.0666667 0 0 0.0666667 718.797 89.63)" style="font:normal normal normal 150px 'Arial'" >
2</text>
<path stroke="transparent" fill="#000000" transform="matrix(0.0666667 0 0 0.0666667 -5.35999 -10.3333)" d="M 10292.4,1484.34 L 10302.8,1490.34 L 10223.5,1627.61 L 10217.5,1626 L 10213.1,1621.61 L 10292.4,1484.34 Z " />
<text x="0" y="0" stroke="transparent" fill="#000000" transform="matrix(0.0666667 0 0 0.0666667 680.941 139.037)" style="font:normal normal normal 200px 'Arial'" >
Br</text>
<path stroke="transparent" fill="#000000" transform="matrix(0.0666667 0 0 0.0666667 -5.35999 -10.3333)" d="M 10310.1,2062.41 L 10299.7,2068.41 L 10213.1,1918.39 L 10217.5,1914 L 10223.5,1912.39 L 10310.1,2062.41 Z " />
<path stroke="transparent" fill="#000000" transform="matrix(0.0666667 0 0 0.0666667 -5.35999 -10.3333)" d="M 12691.4,1666 L 11168,1666 L 11168,1654 L 12691.4,1654 Z " />
<path stroke="transparent" fill="#000000" transform="matrix(0.0666667 0 0 0.0666667 -5.35999 -10.3333)" d="M 12848,1660 C 12848,1660 12668,1706 12668,1706 C 12668,1706 12690.4,1680.13 12690.4,1660 C 12690.4,1639.43 12668,1613 12668,1613 C 12668,1613 12848,1660 12848,1660 C 12848,1660 12848,1660 12848,1660 " />
<path stroke="#000000" stroke-width="1" fill="transparent" transform="matrix(0.0666667 0 0 0.0666667 -5.35999 -10.3333)" d="M 12848,1660 C 12848,1660 12668,1706 12668,1706 C 12668,1706 12690.4,1680.13 12690.4,1660 C 12690.4,1639.43 12668,1613 12668,1613 C 12668,1613 12848,1660 12848,1660 C 12848,1660 12848,1660 12848,1660 " />
<text x="0" y="0" stroke="transparent" fill="#000000" transform="matrix(0.0666667 0 0 0.0666667 747.17 89.3333)" style="font:normal normal normal 200px 'Arial'" >
Suzuki-Miyaura</text>
<path stroke="transparent" fill="#000000" transform="matrix(0.0666667 0 0 0.0666667 -5.35999 -10.3333)" d="M 14079.7,1748.61 L 14073.7,1759 L 14067.7,1757.3 L 14067.7,1472.61 L 14073.7,1471 L 14079.7,1481.39 L 14079.7,1748.61 Z " />
<path stroke="transparent" fill="#000000" transform="matrix(0.0666667 0 0 0.0666667 -5.35999 -10.3333)" d="M 14131.5,1669.21 L 14119.5,1669.21 L 14119.5,1560.79 L 14131.5,1560.79 L 14131.5,1669.21 Z " />
<path stroke="transparent" fill="#000000" transform="matrix(0.0666667 0 0 0.0666667 -5.35999 -10.3333)" d="M 14311.1,1615 L 14323.1,1615 L 14323.1,1621.93 L 14078,1763.44 L 14073.7,1759 L 14079.7,1748.61 L 14311.1,1615 Z " />
<path stroke="transparent" fill="#000000" transform="matrix(0.0666667 0 0 0.0666667 -5.35999 -10.3333)" d="M 14079.7,1481.39 L 14073.7,1471 L 14078.1,1466.6 L 14323.1,1608.07 L 14323.1,1615 L 14311.1,1615 L 14079.7,1481.39 Z " />
<path stroke="transparent" fill="#000000" transform="matrix(0.0666667 0 0 0.0666667 -5.35999 -10.3333)" d="M 14566.5,1748.61 L 14572.5,1759 L 14568.2,1763.46 L 14323.1,1621.93 L 14323.1,1615 L 14335.1,1615 L 14566.5,1748.61 Z " />
<path stroke="transparent" fill="#000000" transform="matrix(0.0666667 0 0 0.0666667 -5.35999 -10.3333)" d="M 14566.5,1481.39 L 14572.5,1471 L 14578.5,1472.64 L 14578.5,1757.26 L 14572.5,1759 L 14566.5,1748.61 L 14566.5,1481.39 Z " />
<path stroke="transparent" fill="#000000" transform="matrix(0.0666667 0 0 0.0666667 -5.35999 -10.3333)" d="M 14514.7,1560.79 L 14526.7,1560.79 L 14526.7,1669.21 L 14514.7,1669.21 L 14514.7,1560.79 Z " />
<path stroke="transparent" fill="#000000" transform="matrix(0.0666667 0 0 0.0666667 -5.35999 -10.3333)" d="M 14335.1,1615 L 14323.1,1615 L 14323.1,1608.07 L 14568.2,1466.59 L 14572.5,1471 L 14566.5,1481.39 L 14335.1,1615 Z " />
<path stroke="transparent" fill="#000000" transform="matrix(0.0666667 0 0 0.0666667 -5.35999 -10.3333)" d="M 14709.7,1238.61 L 14703.7,1249 L 14697.7,1247.36 L 14697.7,962.608 L 14703.7,961 L 14709.7,971.392 L 14709.7,1238.61 Z " />
<path stroke="transparent" fill="#000000" transform="matrix(0.0666667 0 0 0.0666667 -5.35999 -10.3333)" d="M 14761.5,1159.21 L 14749.5,1159.21 L 14749.5,1050.79 L 14761.5,1050.79 L 14761.5,1159.21 Z " />
<path stroke="transparent" fill="#000000" transform="matrix(0.0666667 0 0 0.0666667 -5.35999 -10.3333)" d="M 14941.1,1105 L 14953.1,1105 L 14953.1,1111.93 L 14708.1,1253.41 L 14703.7,1249 L 14709.7,1238.61 L 14941.1,1105 Z " />
<path stroke="transparent" fill="#000000" transform="matrix(0.0666667 0 0 0.0666667 -5.35999 -10.3333)" d="M 14709.7,971.392 L 14703.7,961 L 14708.1,956.608 L 14953.1,1098.07 L 14953.1,1105 L 14941.1,1105 L 14709.7,971.392 Z " />
<path stroke="transparent" fill="#000000" transform="matrix(0.0666667 0 0 0.0666667 -5.35999 -10.3333)" d="M 15196.5,1238.61 L 15202.5,1249 L 15198.1,1253.39 L 14953.1,1111.93 L 14953.1,1105 L 14965.1,1105 L 15196.5,1238.61 Z " />
<path stroke="transparent" fill="#000000" transform="matrix(0.0666667 0 0 0.0666667 -5.35999 -10.3333)" d="M 15196.5,971.392 L 15202.5,961 L 15208.5,962.608 L 15208.5,1247.39 L 15202.5,1249 L 15196.5,1238.61 L 15196.5,971.392 Z " />
<path stroke="transparent" fill="#000000" transform="matrix(0.0666667 0 0 0.0666667 -5.35999 -10.3333)" d="M 15144.7,1050.79 L 15156.7,1050.79 L 15156.7,1159.21 L 15144.7,1159.21 L 15144.7,1050.79 Z " />
<path stroke="transparent" fill="#000000" transform="matrix(0.0666667 0 0 0.0666667 -5.35999 -10.3333)" d="M 14965.1,1105 L 14953.1,1105 L 14953.1,1098.07 L 15198.1,956.608 L 15202.5,961 L 15196.5,971.392 L 14965.1,1105 Z " />
<path stroke="transparent" fill="#000000" transform="matrix(0.0666667 0 0 0.0666667 -5.35999 -10.3333)" d="M 14709.7,2243.61 L 14703.7,2254 L 14697.7,2252.39 L 14697.7,1967.74 L 14703.7,1966 L 14709.7,1976.39 L 14709.7,2243.61 Z " />
<path stroke="transparent" fill="#000000" transform="matrix(0.0666667 0 0 0.0666667 -5.35999 -10.3333)" d="M 14761.5,2164.21 L 14749.5,2164.21 L 14749.5,2055.79 L 14761.5,2055.79 L 14761.5,2164.21 Z " />
<path stroke="transparent" fill="#000000" transform="matrix(0.0666667 0 0 0.0666667 -5.35999 -10.3333)" d="M 14941.1,2110 L 14953.1,2110 L 14953.1,2116.93 L 14708.1,2258.39 L 14703.7,2254 L 14709.7,2243.61 L 14941.1,2110 Z " />
<path stroke="transparent" fill="#000000" transform="matrix(0.0666667 0 0 0.0666667 -5.35999 -10.3333)" d="M 14709.7,1976.39 L 14703.7,1966 L 14708,1961.54 L 14953.1,2103.07 L 14953.1,2110 L 14941.1,2110 L 14709.7,1976.39 Z " />
<path stroke="transparent" fill="#000000" transform="matrix(0.0666667 0 0 0.0666667 -5.35999 -10.3333)" d="M 15196.5,2243.61 L 15202.5,2254 L 15198.1,2258.39 L 14953.1,2116.93 L 14953.1,2110 L 14965.1,2110 L 15196.5,2243.61 Z " />
<path stroke="transparent" fill="#000000" transform="matrix(0.0666667 0 0 0.0666667 -5.35999 -10.3333)" d="M 15196.5,1976.39 L 15202.5,1966 L 15208.5,1967.61 L 15208.5,2252.39 L 15202.5,2254 L 15196.5,2243.61 L 15196.5,1976.39 Z " />
<path stroke="transparent" fill="#000000" transform="matrix(0.0666667 0 0 0.0666667 -5.35999 -10.3333)" d="M 15144.7,2055.79 L 15156.7,2055.79 L 15156.7,2164.21 L 15144.7,2164.21 L 15144.7,2055.79 Z " />
<path stroke="transparent" fill="#000000" transform="matrix(0.0666667 0 0 0.0666667 -5.35999 -10.3333)" d="M 14965.1,2110 L 14953.1,2110 L 14953.1,2103.07 L 15198.1,1961.61 L 15202.5,1966 L 15196.5,1976.39 L 14965.1,2110 Z " />
<path stroke="transparent" fill="#000000" transform="matrix(0.0666667 0 0 0.0666667 -5.35999 -10.3333)" d="M 13434.7,1208.61 L 13428.7,1219 L 13422.7,1217.39 L 13422.7,932.608 L 13428.7,931 L 13434.7,941.392 L 13434.7,1208.61 Z " />
<path stroke="transparent" fill="#000000" transform="matrix(0.0666667 0 0 0.0666667 -5.35999 -10.3333)" d="M 13486.5,1129.21 L 13474.5,1129.21 L 13474.5,1020.79 L 13486.5,1020.79 L 13486.5,1129.21 Z " />
<path stroke="transparent" fill="#000000" transform="matrix(0.0666667 0 0 0.0666667 -5.35999 -10.3333)" d="M 13666.1,1075 L 13678.1,1075 L 13678.1,1081.93 L 13433.1,1223.39 L 13428.7,1219 L 13434.7,1208.61 L 13666.1,1075 Z " />
<path stroke="transparent" fill="#000000" transform="matrix(0.0666667 0 0 0.0666667 -5.35999 -10.3333)" d="M 13434.7,941.392 L 13428.7,931 L 13433.1,926.608 L 13678.1,1068.07 L 13678.1,1075 L 13666.1,1075 L 13434.7,941.392 Z " />
<path stroke="transparent" fill="#000000" transform="matrix(0.0666667 0 0 0.0666667 -5.35999 -10.3333)" d="M 13921.5,1208.61 L 13927.5,1219 L 13923.1,1223.4 L 13678.1,1081.93 L 13678.1,1075 L 13690.1,1075 L 13921.5,1208.61 Z " />
<path stroke="transparent" fill="#000000" transform="matrix(0.0666667 0 0 0.0666667 -5.35999 -10.3333)" d="M 13921.5,941.392 L 13927.5,931 L 13933.5,932.608 L 13933.5,1217.39 L 13927.5,1219 L 13921.5,1208.61 L 13921.5,941.392 Z " />
<path stroke="transparent" fill="#000000" transform="matrix(0.0666667 0 0 0.0666667 -5.35999 -10.3333)" d="M 13869.7,1020.79 L 13881.7,1020.79 L 13881.7,1129.21 L 13869.7,1129.21 L 13869.7,1020.79 Z " />
<path stroke="transparent" fill="#000000" transform="matrix(0.0666667 0 0 0.0666667 -5.35999 -10.3333)" d="M 13690.1,1075 L 13678.1,1075 L 13678.1,1068.07 L 13923.1,926.608 L 13927.5,931 L 13921.5,941.392 L 13690.1,1075 Z " />
<path stroke="transparent" fill="#000000" transform="matrix(0.0666667 0 0 0.0666667 -5.35999 -10.3333)" d="M 13434.7,2273.61 L 13428.7,2284 L 13422.7,2282.39 L 13422.7,1997.61 L 13428.7,1996 L 13434.7,2006.39 L 13434.7,2273.61 Z " />
<path stroke="transparent" fill="#000000" transform="matrix(0.0666667 0 0 0.0666667 -5.35999 -10.3333)" d="M 13486.5,2194.21 L 13474.5,2194.21 L 13474.5,2085.79 L 13486.5,2085.79 L 13486.5,2194.21 Z " />
<path stroke="transparent" fill="#000000" transform="matrix(0.0666667 0 0 0.0666667 -5.35999 -10.3333)" d="M 13666.1,2140 L 13678.1,2140 L 13678.1,2146.93 L 13433.1,2288.39 L 13428.7,2284 L 13434.7,2273.61 L 13666.1,2140 Z " />
<path stroke="transparent" fill="#000000" transform="matrix(0.0666667 0 0 0.0666667 -5.35999 -10.3333)" d="M 13434.7,2006.39 L 13428.7,1996 L 13433.1,1991.61 L 13678.1,2133.07 L 13678.1,2140 L 13666.1,2140 L 13434.7,2006.39 Z " />
<path stroke="transparent" fill="#000000" transform="matrix(0.0666667 0 0 0.0666667 -5.35999 -10.3333)" d="M 13921.5,2273.61 L 13927.5,2284 L 13923.1,2288.39 L 13678.1,2146.93 L 13678.1,2140 L 13690.1,2140 L 13921.5,2273.61 Z " />
<path stroke="transparent" fill="#000000" transform="matrix(0.0666667 0 0 0.0666667 -5.35999 -10.3333)" d="M 13921.5,2006.39 L 13927.5,1996 L 13933.5,1997.7 L 13933.5,2282.39 L 13927.5,2284 L 13921.5,2273.61 L 13921.5,2006.39 Z " />
<path stroke="transparent" fill="#000000" transform="matrix(0.0666667 0 0 0.0666667 -5.35999 -10.3333)" d="M 13869.7,2085.79 L 13881.7,2085.79 L 13881.7,2194.21 L 13869.7,2194.21 L 13869.7,2085.79 Z " />
<path stroke="transparent" fill="#000000" transform="matrix(0.0666667 0 0 0.0666667 -5.35999 -10.3333)" d="M 13690.1,2140 L 13678.1,2140 L 13678.1,2133.07 L 13923.2,1991.56 L 13927.5,1996 L 13921.5,2006.39 L 13690.1,2140 Z " />
<path stroke="transparent" fill="#000000" transform="matrix(0.0666667 0 0 0.0666667 -5.35999 -10.3333)" d="M 14065.8,679.451 L 14076.2,685.451 L 14047.7,734.882 L 14037.3,728.882 L 14065.8,679.451 Z " />
<path stroke="transparent" fill="#000000" transform="matrix(0.0666667 0 0 0.0666667 -5.35999 -10.3333)" d="M 14008.7,778.313 L 14019.1,784.313 L 13990.6,833.745 L 13980.2,827.745 L 14008.7,778.313 Z " />
<path stroke="transparent" fill="#000000" transform="matrix(0.0666667 0 0 0.0666667 -5.35999 -10.3333)" d="M 13951.7,877.176 L 13962.1,883.176 L 13933.5,932.608 L 13923.1,926.608 L 13951.7,877.176 Z " />
<path stroke="transparent" fill="#000000" transform="matrix(0.0666667 0 0 0.0666667 -5.35999 -10.3333)" d="M 13280,685.451 L 13290.4,679.451 L 13318.9,728.882 L 13308.5,734.882 L 13280,685.451 Z " />
<path stroke="transparent" fill="#000000" transform="matrix(0.0666667 0 0 0.0666667 -5.35999 -10.3333)" d="M 13337.1,784.313 L 13347.5,778.313 L 13376,827.745 L 13365.6,833.745 L 13337.1,784.313 Z " />
<path stroke="transparent" fill="#000000" transform="matrix(0.0666667 0 0 0.0666667 -5.35999 -10.3333)" d="M 13394.1,883.176 L 13404.5,877.176 L 13433.1,926.608 L 13422.7,932.608 L 13394.1,883.176 Z " />
<path stroke="transparent" fill="#000000" transform="matrix(0.0666667 0 0 0.0666667 -5.35999 -10.3333)" d="M 13280,1750.45 L 13290.4,1744.45 L 13318.9,1793.88 L 13308.5,1799.88 L 13280,1750.45 Z " />
<path stroke="transparent" fill="#000000" transform="matrix(0.0666667 0 0 0.0666667 -5.35999 -10.3333)" d="M 13337.1,1849.31 L 13347.5,1843.31 L 13376,1892.74 L 13365.6,1898.74 L 13337.1,1849.31 Z " />
<path stroke="transparent" fill="#000000" transform="matrix(0.0666667 0 0 0.0666667 -5.35999 -10.3333)" d="M 13394.1,1948.18 L 13404.5,1942.18 L 13433.1,1991.61 L 13422.7,1997.61 L 13394.1,1948.18 Z " />
<path stroke="transparent" fill="#000000" transform="matrix(0.0666667 0 0 0.0666667 -5.35999 -10.3333)" d="M 13290.4,2535.55 L 13280,2529.55 L 13308.5,2480.12 L 13318.9,2486.12 L 13290.4,2535.55 Z " />
<path stroke="transparent" fill="#000000" transform="matrix(0.0666667 0 0 0.0666667 -5.35999 -10.3333)" d="M 13347.5,2436.69 L 13337.1,2430.69 L 13365.6,2381.26 L 13376,2387.25 L 13347.5,2436.69 Z " />
<path stroke="transparent" fill="#000000" transform="matrix(0.0666667 0 0 0.0666667 -5.35999 -10.3333)" d="M 13404.5,2337.82 L 13394.1,2331.82 L 13422.7,2282.39 L 13433.1,2288.39 L 13404.5,2337.82 Z " />
<path stroke="transparent" fill="#000000" transform="matrix(0.0666667 0 0 0.0666667 -5.35999 -10.3333)" d="M 14076.2,2529.55 L 14065.8,2535.55 L 14037.3,2486.12 L 14047.7,2480.12 L 14076.2,2529.55 Z " />
<path stroke="transparent" fill="#000000" transform="matrix(0.0666667 0 0 0.0666667 -5.35999 -10.3333)" d="M 14019.1,2430.69 L 14008.7,2436.69 L 13980.2,2387.25 L 13990.6,2381.26 L 14019.1,2430.69 Z " />
<path stroke="transparent" fill="#000000" transform="matrix(0.0666667 0 0 0.0666667 -5.35999 -10.3333)" d="M 13962.1,2331.82 L 13951.7,2337.82 L 13923.1,2288.39 L 13933.5,2282.39 L 13962.1,2331.82 Z " />
<path stroke="transparent" fill="#000000" transform="matrix(0.0666667 0 0 0.0666667 -5.35999 -10.3333)" d="M 14565.4,2505.55 L 14555,2499.55 L 14583.5,2450.12 L 14593.9,2456.12 L 14565.4,2505.55 Z " />
<path stroke="transparent" fill="#000000" transform="matrix(0.0666667 0 0 0.0666667 -5.35999 -10.3333)" d="M 14622.5,2406.69 L 14612.1,2400.69 L 14640.6,2351.26 L 14651,2357.25 L 14622.5,2406.69 Z " />
<path stroke="transparent" fill="#000000" transform="matrix(0.0666667 0 0 0.0666667 -5.35999 -10.3333)" d="M 14679.5,2307.82 L 14669.1,2301.82 L 14697.7,2252.39 L 14708.1,2258.39 L 14679.5,2307.82 Z " />
<path stroke="transparent" fill="#000000" transform="matrix(0.0666667 0 0 0.0666667 -5.35999 -10.3333)" d="M 15340.8,1714.45 L 15351.2,1720.45 L 15322.7,1769.88 L 15312.3,1763.88 L 15340.8,1714.45 Z " />
<path stroke="transparent" fill="#000000" transform="matrix(0.0666667 0 0 0.0666667 -5.35999 -10.3333)" d="M 15283.7,1813.31 L 15294.1,1819.31 L 15265.6,1868.74 L 15255.2,1862.74 L 15283.7,1813.31 Z " />
<path stroke="transparent" fill="#000000" transform="matrix(0.0666667 0 0 0.0666667 -5.35999 -10.3333)" d="M 15226.7,1912.18 L 15237.1,1918.18 L 15208.5,1967.61 L 15198.1,1961.61 L 15226.7,1912.18 Z " />
<path stroke="transparent" fill="#000000" transform="matrix(0.0666667 0 0 0.0666667 -5.35999 -10.3333)" d="M 15351.2,1494.55 L 15340.8,1500.55 L 15312.3,1451.12 L 15322.7,1445.12 L 15351.2,1494.55 Z " />
<path stroke="transparent" fill="#000000" transform="matrix(0.0666667 0 0 0.0666667 -5.35999 -10.3333)" d="M 15294.1,1395.69 L 15283.7,1401.69 L 15255.2,1352.25 L 15265.6,1346.26 L 15294.1,1395.69 Z " />
<path stroke="transparent" fill="#000000" transform="matrix(0.0666667 0 0 0.0666667 -5.35999 -10.3333)" d="M 15237.1,1296.82 L 15226.7,1302.82 L 15198.1,1253.39 L 15208.5,1247.39 L 15237.1,1296.82 Z " />
<path stroke="transparent" fill="#000000" transform="matrix(0.0666667 0 0 0.0666667 -5.35999 -10.3333)" d="M 15340.8,709.451 L 15351.2,715.451 L 15322.7,764.882 L 15312.3,758.882 L 15340.8,709.451 Z " />
<path stroke="transparent" fill="#000000" transform="matrix(0.0666667 0 0 0.0666667 -5.35999 -10.3333)" d="M 15283.7,808.313 L 15294.1,814.313 L 15265.6,863.745 L 15255.2,857.745 L 15283.7,808.313 Z " />
<path stroke="transparent" fill="#000000" transform="matrix(0.0666667 0 0 0.0666667 -5.35999 -10.3333)" d="M 15226.7,907.176 L 15237.1,913.176 L 15208.5,962.608 L 15198.1,956.608 L 15226.7,907.176 Z " />
<path stroke="transparent" fill="#000000" transform="matrix(0.0666667 0 0 0.0666667 -5.35999 -10.3333)" d="M 14555,715.451 L 14565.4,709.451 L 14593.9,758.882 L 14583.5,764.882 L 14555,715.451 Z " />
<path stroke="transparent" fill="#000000" transform="matrix(0.0666667 0 0 0.0666667 -5.35999 -10.3333)" d="M 14612.1,814.313 L 14622.5,808.313 L 14651,857.745 L 14640.6,863.745 L 14612.1,814.313 Z " />
<path stroke="transparent" fill="#000000" transform="matrix(0.0666667 0 0 0.0666667 -5.35999 -10.3333)" d="M 14669.1,913.176 L 14679.5,907.176 L 14708.1,956.608 L 14697.7,962.608 L 14669.1,913.176 Z " />
<path stroke="transparent" fill="#000000" transform="matrix(0.0666667 0 0 0.0666667 -5.35999 -10.3333)" d="M 15351.2,2499.55 L 15340.8,2505.55 L 15312.3,2456.12 L 15322.7,2450.12 L 15351.2,2499.55 Z " />
<path stroke="transparent" fill="#000000" transform="matrix(0.0666667 0 0 0.0666667 -5.35999 -10.3333)" d="M 15294.1,2400.69 L 15283.7,2406.69 L 15255.2,2357.25 L 15265.6,2351.26 L 15294.1,2400.69 Z " />
<path stroke="transparent" fill="#000000" transform="matrix(0.0666667 0 0 0.0666667 -5.35999 -10.3333)" d="M 15237.1,2301.82 L 15226.7,2307.82 L 15198.1,2258.39 L 15208.5,2252.39 L 15237.1,2301.82 Z " />
<path stroke="transparent" fill="#000000" transform="matrix(0.0666667 0 0 0.0666667 -5.35999 -10.3333)" d="M 14078.1,1466.6 L 14073.7,1471 L 14067.7,1472.61 L 13923.1,1223.4 L 13927.5,1219 L 13933.5,1217.39 L 14078.1,1466.6 Z " />
<path stroke="transparent" fill="#000000" transform="matrix(0.0666667 0 0 0.0666667 -5.35999 -10.3333)" d="M 14067.7,1757.3 L 14073.7,1759 L 14078,1763.44 L 13933.5,1997.7 L 13927.5,1996 L 13923.2,1991.56 L 14067.7,1757.3 Z " />
<path stroke="transparent" fill="#000000" transform="matrix(0.0666667 0 0 0.0666667 -5.35999 -10.3333)" d="M 14697.7,1247.36 L 14703.7,1249 L 14708.1,1253.41 L 14578.5,1472.64 L 14572.5,1471 L 14568.2,1466.59 L 14697.7,1247.36 Z " />
<path stroke="transparent" fill="#000000" transform="matrix(0.0666667 0 0 0.0666667 -5.35999 -10.3333)" d="M 14708,1961.54 L 14703.7,1966 L 14697.7,1967.74 L 14568.2,1763.46 L 14572.5,1759 L 14578.5,1757.26 L 14708,1961.54 Z " />
<path stroke="transparent" fill="#000000" transform="matrix(0.0666667 0 0 0.0666667 -5.35999 -10.3333)" d="M 13290.4,1470.55 L 13280,1464.55 L 13308.5,1415.12 L 13318.9,1421.12 L 13290.4,1470.55 Z " />
<path stroke="transparent" fill="#000000" transform="matrix(0.0666667 0 0 0.0666667 -5.35999 -10.3333)" d="M 13347.5,1371.69 L 13337.1,1365.69 L 13365.6,1316.26 L 13376,1322.25 L 13347.5,1371.69 Z " />
<path stroke="transparent" fill="#000000" transform="matrix(0.0666667 0 0 0.0666667 -5.35999 -10.3333)" d="M 13404.5,1272.82 L 13394.1,1266.82 L 13422.7,1217.39 L 13433.1,1223.39 L 13404.5,1272.82 Z " />
<path stroke="transparent" fill="#000000" transform="matrix(0.0666667 0 0 0.0666667 -5.35999 -10.3333)" d="M 17829.7,1628.61 L 17823.7,1639 L 17817.7,1637.3 L 17817.7,1352.61 L 17823.7,1351 L 17829.7,1361.39 L 17829.7,1628.61 Z " />
<path stroke="transparent" fill="#000000" transform="matrix(0.0666667 0 0 0.0666667 -5.35999 -10.3333)" d="M 18061.1,1495 L 18073.1,1495 L 18073.1,1501.93 L 17828,1643.44 L 17823.7,1639 L 17829.7,1628.61 L 18061.1,1495 Z " />
<path stroke="transparent" fill="#000000" transform="matrix(0.0666667 0 0 0.0666667 -5.35999 -10.3333)" d="M 17829.7,1361.39 L 17823.7,1351 L 17828.1,1346.6 L 18073.1,1488.07 L 18073.1,1495 L 18061.1,1495 L 17829.7,1361.39 Z " />
<path stroke="transparent" fill="#000000" transform="matrix(0.0666667 0 0 0.0666667 -5.35999 -10.3333)" d="M 18316.5,1628.61 L 18322.5,1639 L 18318.2,1643.46 L 18073.1,1501.93 L 18073.1,1495 L 18085.1,1495 L 18316.5,1628.61 Z " />
<path stroke="transparent" fill="#000000" transform="matrix(0.0666667 0 0 0.0666667 -5.35999 -10.3333)" d="M 18316.5,1361.39 L 18322.5,1351 L 18328.5,1352.64 L 18328.5,1637.26 L 18322.5,1639 L 18316.5,1628.61 L 18316.5,1361.39 Z " />
<path stroke="transparent" fill="#000000" transform="matrix(0.0666667 0 0 0.0666667 -5.35999 -10.3333)" d="M 18085.1,1495 L 18073.1,1495 L 18073.1,1488.07 L 18318.2,1346.59 L 18322.5,1351 L 18316.5,1361.39 L 18085.1,1495 Z " />
<path stroke="transparent" fill="#000000" transform="matrix(0.0666667 0 0 0.0666667 -5.35999 -10.3333)" d="M 18459.7,1118.61 L 18453.7,1129 L 18447.7,1127.36 L 18447.7,842.608 L 18453.7,841 L 18459.7,851.392 L 18459.7,1118.61 Z " />
<path stroke="transparent" fill="#000000" transform="matrix(0.0666667 0 0 0.0666667 -5.35999 -10.3333)" d="M 18691.1,985 L 18703.1,985 L 18703.1,991.928 L 18458.1,1133.41 L 18453.7,1129 L 18459.7,1118.61 L 18691.1,985 Z " />
<path stroke="transparent" fill="#000000" transform="matrix(0.0666667 0 0 0.0666667 -5.35999 -10.3333)" d="M 18459.7,851.392 L 18453.7,841 L 18458.1,836.608 L 18703.1,978.072 L 18703.1,985 L 18691.1,985 L 18459.7,851.392 Z " />
<path stroke="transparent" fill="#000000" transform="matrix(0.0666667 0 0 0.0666667 -5.35999 -10.3333)" d="M 18946.5,1118.61 L 18952.5,1129 L 18948.1,1133.39 L 18703.1,991.928 L 18703.1,985 L 18715.1,985 L 18946.5,1118.61 Z " />
<path stroke="transparent" fill="#000000" transform="matrix(0.0666667 0 0 0.0666667 -5.35999 -10.3333)" d="M 18946.5,851.392 L 18952.5,841 L 18958.5,842.608 L 18958.5,1127.39 L 18952.5,1129 L 18946.5,1118.61 L 18946.5,851.392 Z " />
<path stroke="transparent" fill="#000000" transform="matrix(0.0666667 0 0 0.0666667 -5.35999 -10.3333)" d="M 18715.1,985 L 18703.1,985 L 18703.1,978.072 L 18948.1,836.608 L 18952.5,841 L 18946.5,851.392 L 18715.1,985 Z " />
<path stroke="transparent" fill="#000000" transform="matrix(0.0666667 0 0 0.0666667 -5.35999 -10.3333)" d="M 18459.7,2123.61 L 18453.7,2134 L 18447.7,2132.39 L 18447.7,1847.74 L 18453.7,1846 L 18459.7,1856.39 L 18459.7,2123.61 Z " />
<path stroke="transparent" fill="#000000" transform="matrix(0.0666667 0 0 0.0666667 -5.35999 -10.3333)" d="M 18691.1,1990 L 18703.1,1990 L 18703.1,1996.93 L 18458.1,2138.39 L 18453.7,2134 L 18459.7,2123.61 L 18691.1,1990 Z " />
<path stroke="transparent" fill="#000000" transform="matrix(0.0666667 0 0 0.0666667 -5.35999 -10.3333)" d="M 18459.7,1856.39 L 18453.7,1846 L 18458,1841.54 L 18703.1,1983.07 L 18703.1,1990 L 18691.1,1990 L 18459.7,1856.39 Z " />
<path stroke="transparent" fill="#000000" transform="matrix(0.0666667 0 0 0.0666667 -5.35999 -10.3333)" d="M 18946.5,2123.61 L 18952.5,2134 L 18948.1,2138.39 L 18703.1,1996.93 L 18703.1,1990 L 18715.1,1990 L 18946.5,2123.61 Z " />
<path stroke="transparent" fill="#000000" transform="matrix(0.0666667 0 0 0.0666667 -5.35999 -10.3333)" d="M 18946.5,1856.39 L 18952.5,1846 L 18958.5,1847.61 L 18958.5,2132.39 L 18952.5,2134 L 18946.5,2123.61 L 18946.5,1856.39 Z " />
<path stroke="transparent" fill="#000000" transform="matrix(0.0666667 0 0 0.0666667 -5.35999 -10.3333)" d="M 18715.1,1990 L 18703.1,1990 L 18703.1,1983.07 L 18948.1,1841.61 L 18952.5,1846 L 18946.5,1856.39 L 18715.1,1990 Z " />
<path stroke="transparent" fill="#000000" transform="matrix(0.0666667 0 0 0.0666667 -5.35999 -10.3333)" d="M 17184.7,1088.61 L 17178.7,1099 L 17172.7,1097.39 L 17172.7,812.608 L 17178.7,811 L 17184.7,821.392 L 17184.7,1088.61 Z " />
<path stroke="transparent" fill="#000000" transform="matrix(0.0666667 0 0 0.0666667 -5.35999 -10.3333)" d="M 17416.1,955 L 17428.1,955 L 17428.1,961.928 L 17183.1,1103.39 L 17178.7,1099 L 17184.7,1088.61 L 17416.1,955 Z " />
<path stroke="transparent" fill="#000000" transform="matrix(0.0666667 0 0 0.0666667 -5.35999 -10.3333)" d="M 17184.7,821.392 L 17178.7,811 L 17183.1,806.608 L 17428.1,948.072 L 17428.1,955 L 17416.1,955 L 17184.7,821.392 Z " />
<path stroke="transparent" fill="#000000" transform="matrix(0.0666667 0 0 0.0666667 -5.35999 -10.3333)" d="M 17671.5,1088.61 L 17677.5,1099 L 17673.1,1103.4 L 17428.1,961.928 L 17428.1,955 L 17440.1,955 L 17671.5,1088.61 Z " />
<path stroke="transparent" fill="#000000" transform="matrix(0.0666667 0 0 0.0666667 -5.35999 -10.3333)" d="M 17671.5,821.392 L 17677.5,811 L 17683.5,812.608 L 17683.5,1097.39 L 17677.5,1099 L 17671.5,1088.61 L 17671.5,821.392 Z " />
<path stroke="transparent" fill="#000000" transform="matrix(0.0666667 0 0 0.0666667 -5.35999 -10.3333)" d="M 17440.1,955 L 17428.1,955 L 17428.1,948.072 L 17673.1,806.608 L 17677.5,811 L 17671.5,821.392 L 17440.1,955 Z " />
<path stroke="transparent" fill="#000000" transform="matrix(0.0666667 0 0 0.0666667 -5.35999 -10.3333)" d="M 17184.7,2153.61 L 17178.7,2164 L 17172.7,2162.39 L 17172.7,1877.61 L 17178.7,1876 L 17184.7,1886.39 L 17184.7,2153.61 Z " />
<path stroke="transparent" fill="#000000" transform="matrix(0.0666667 0 0 0.0666667 -5.35999 -10.3333)" d="M 17416.1,2020 L 17428.1,2020 L 17428.1,2026.93 L 17183.1,2168.39 L 17178.7,2164 L 17184.7,2153.61 L 17416.1,2020 Z " />
<path stroke="transparent" fill="#000000" transform="matrix(0.0666667 0 0 0.0666667 -5.35999 -10.3333)" d="M 17184.7,1886.39 L 17178.7,1876 L 17183.1,1871.61 L 17428.1,2013.07 L 17428.1,2020 L 17416.1,2020 L 17184.7,1886.39 Z " />
<path stroke="transparent" fill="#000000" transform="matrix(0.0666667 0 0 0.0666667 -5.35999 -10.3333)" d="M 17671.5,2153.61 L 17677.5,2164 L 17673.1,2168.39 L 17428.1,2026.93 L 17428.1,2020 L 17440.1,2020 L 17671.5,2153.61 Z " />
<path stroke="transparent" fill="#000000" transform="matrix(0.0666667 0 0 0.0666667 -5.35999 -10.3333)" d="M 17671.5,1886.39 L 17677.5,1876 L 17683.5,1877.7 L 17683.5,2162.39 L 17677.5,2164 L 17671.5,2153.61 L 17671.5,1886.39 Z " />
<path stroke="transparent" fill="#000000" transform="matrix(0.0666667 0 0 0.0666667 -5.35999 -10.3333)" d="M 17440.1,2020 L 17428.1,2020 L 17428.1,2013.07 L 17673.2,1871.56 L 17677.5,1876 L 17671.5,1886.39 L 17440.1,2020 Z " />
<path stroke="transparent" fill="#000000" transform="matrix(0.0666667 0 0 0.0666667 -5.35999 -10.3333)" d="M 17815.8,559.451 L 17826.2,565.451 L 17797.7,614.882 L 17787.3,608.882 L 17815.8,559.451 Z " />
<path stroke="transparent" fill="#000000" transform="matrix(0.0666667 0 0 0.0666667 -5.35999 -10.3333)" d="M 17758.7,658.313 L 17769.1,664.313 L 17740.6,713.745 L 17730.2,707.745 L 17758.7,658.313 Z " />
<path stroke="transparent" fill="#000000" transform="matrix(0.0666667 0 0 0.0666667 -5.35999 -10.3333)" d="M 17701.7,757.176 L 17712.1,763.176 L 17683.5,812.608 L 17673.1,806.608 L 17701.7,757.176 Z " />
<path stroke="transparent" fill="#000000" transform="matrix(0.0666667 0 0 0.0666667 -5.35999 -10.3333)" d="M 17030,565.451 L 17040.4,559.451 L 17068.9,608.882 L 17058.5,614.882 L 17030,565.451 Z " />
<path stroke="transparent" fill="#000000" transform="matrix(0.0666667 0 0 0.0666667 -5.35999 -10.3333)" d="M 17087.1,664.313 L 17097.5,658.313 L 17126,707.745 L 17115.6,713.745 L 17087.1,664.313 Z " />
<path stroke="transparent" fill="#000000" transform="matrix(0.0666667 0 0 0.0666667 -5.35999 -10.3333)" d="M 17144.1,763.176 L 17154.5,757.176 L 17183.1,806.608 L 17172.7,812.608 L 17144.1,763.176 Z " />
<path stroke="transparent" fill="#000000" transform="matrix(0.0666667 0 0 0.0666667 -5.35999 -10.3333)" d="M 17030,1630.45 L 17040.4,1624.45 L 17068.9,1673.88 L 17058.5,1679.88 L 17030,1630.45 Z " />
<path stroke="transparent" fill="#000000" transform="matrix(0.0666667 0 0 0.0666667 -5.35999 -10.3333)" d="M 17087.1,1729.31 L 17097.5,1723.31 L 17126,1772.74 L 17115.6,1778.74 L 17087.1,1729.31 Z " />
<path stroke="transparent" fill="#000000" transform="matrix(0.0666667 0 0 0.0666667 -5.35999 -10.3333)" d="M 17144.1,1828.18 L 17154.5,1822.18 L 17183.1,1871.61 L 17172.7,1877.61 L 17144.1,1828.18 Z " />
<path stroke="transparent" fill="#000000" transform="matrix(0.0666667 0 0 0.0666667 -5.35999 -10.3333)" d="M 17040.4,2415.55 L 17030,2409.55 L 17058.5,2360.12 L 17068.9,2366.12 L 17040.4,2415.55 Z " />
<path stroke="transparent" fill="#000000" transform="matrix(0.0666667 0 0 0.0666667 -5.35999 -10.3333)" d="M 17097.5,2316.69 L 17087.1,2310.69 L 17115.6,2261.26 L 17126,2267.25 L 17097.5,2316.69 Z " />
<path stroke="transparent" fill="#000000" transform="matrix(0.0666667 0 0 0.0666667 -5.35999 -10.3333)" d="M 17154.5,2217.82 L 17144.1,2211.82 L 17172.7,2162.39 L 17183.1,2168.39 L 17154.5,2217.82 Z " />
<path stroke="transparent" fill="#000000" transform="matrix(0.0666667 0 0 0.0666667 -5.35999 -10.3333)" d="M 17826.2,2409.55 L 17815.8,2415.55 L 17787.3,2366.12 L 17797.7,2360.12 L 17826.2,2409.55 Z " />
<path stroke="transparent" fill="#000000" transform="matrix(0.0666667 0 0 0.0666667 -5.35999 -10.3333)" d="M 17769.1,2310.69 L 17758.7,2316.69 L 17730.2,2267.25 L 17740.6,2261.26 L 17769.1,2310.69 Z " />
<path stroke="transparent" fill="#000000" transform="matrix(0.0666667 0 0 0.0666667 -5.35999 -10.3333)" d="M 17712.1,2211.82 L 17701.7,2217.82 L 17673.1,2168.39 L 17683.5,2162.39 L 17712.1,2211.82 Z " />
<path stroke="transparent" fill="#000000" transform="matrix(0.0666667 0 0 0.0666667 -5.35999 -10.3333)" d="M 18315.4,2385.55 L 18305,2379.55 L 18333.5,2330.12 L 18343.9,2336.12 L 18315.4,2385.55 Z " />
<path stroke="transparent" fill="#000000" transform="matrix(0.0666667 0 0 0.0666667 -5.35999 -10.3333)" d="M 18372.5,2286.69 L 18362.1,2280.69 L 18390.6,2231.26 L 18401,2237.25 L 18372.5,2286.69 Z " />
<path stroke="transparent" fill="#000000" transform="matrix(0.0666667 0 0 0.0666667 -5.35999 -10.3333)" d="M 18429.5,2187.82 L 18419.1,2181.82 L 18447.7,2132.39 L 18458.1,2138.39 L 18429.5,2187.82 Z " />
<path stroke="transparent" fill="#000000" transform="matrix(0.0666667 0 0 0.0666667 -5.35999 -10.3333)" d="M 19090.8,1594.45 L 19101.2,1600.45 L 19072.7,1649.88 L 19062.3,1643.88 L 19090.8,1594.45 Z " />
<path stroke="transparent" fill="#000000" transform="matrix(0.0666667 0 0 0.0666667 -5.35999 -10.3333)" d="M 19033.7,1693.31 L 19044.1,1699.31 L 19015.6,1748.74 L 19005.2,1742.74 L 19033.7,1693.31 Z " />
<path stroke="transparent" fill="#000000" transform="matrix(0.0666667 0 0 0.0666667 -5.35999 -10.3333)" d="M 18976.7,1792.18 L 18987.1,1798.18 L 18958.5,1847.61 L 18948.1,1841.61 L 18976.7,1792.18 Z " />
<path stroke="transparent" fill="#000000" transform="matrix(0.0666667 0 0 0.0666667 -5.35999 -10.3333)" d="M 19101.2,1374.55 L 19090.8,1380.55 L 19062.3,1331.12 L 19072.7,1325.12 L 19101.2,1374.55 Z " />
<path stroke="transparent" fill="#000000" transform="matrix(0.0666667 0 0 0.0666667 -5.35999 -10.3333)" d="M 19044.1,1275.69 L 19033.7,1281.69 L 19005.2,1232.25 L 19015.6,1226.26 L 19044.1,1275.69 Z " />
<path stroke="transparent" fill="#000000" transform="matrix(0.0666667 0 0 0.0666667 -5.35999 -10.3333)" d="M 18987.1,1176.82 L 18976.7,1182.82 L 18948.1,1133.39 L 18958.5,1127.39 L 18987.1,1176.82 Z " />
<path stroke="transparent" fill="#000000" transform="matrix(0.0666667 0 0 0.0666667 -5.35999 -10.3333)" d="M 19090.8,589.451 L 19101.2,595.451 L 19072.7,644.882 L 19062.3,638.882 L 19090.8,589.451 Z " />
<path stroke="transparent" fill="#000000" transform="matrix(0.0666667 0 0 0.0666667 -5.35999 -10.3333)" d="M 19033.7,688.313 L 19044.1,694.313 L 19015.6,743.745 L 19005.2,737.745 L 19033.7,688.313 Z " />
<path stroke="transparent" fill="#000000" transform="matrix(0.0666667 0 0 0.0666667 -5.35999 -10.3333)" d="M 18976.7,787.176 L 18987.1,793.176 L 18958.5,842.608 L 18948.1,836.608 L 18976.7,787.176 Z " />
<path stroke="transparent" fill="#000000" transform="matrix(0.0666667 0 0 0.0666667 -5.35999 -10.3333)" d="M 18305,595.451 L 18315.4,589.451 L 18343.9,638.882 L 18333.5,644.882 L 18305,595.451 Z " />
<path stroke="transparent" fill="#000000" transform="matrix(0.0666667 0 0 0.0666667 -5.35999 -10.3333)" d="M 18362.1,694.313 L 18372.5,688.313 L 18401,737.745 L 18390.6,743.745 L 18362.1,694.313 Z " />
<path stroke="transparent" fill="#000000" transform="matrix(0.0666667 0 0 0.0666667 -5.35999 -10.3333)" d="M 18419.1,793.176 L 18429.5,787.176 L 18458.1,836.608 L 18447.7,842.608 L 18419.1,793.176 Z " />
<path stroke="transparent" fill="#000000" transform="matrix(0.0666667 0 0 0.0666667 -5.35999 -10.3333)" d="M 19101.2,2379.55 L 19090.8,2385.55 L 19062.3,2336.12 L 19072.7,2330.12 L 19101.2,2379.55 Z " />
<path stroke="transparent" fill="#000000" transform="matrix(0.0666667 0 0 0.0666667 -5.35999 -10.3333)" d="M 19044.1,2280.69 L 19033.7,2286.69 L 19005.2,2237.25 L 19015.6,2231.26 L 19044.1,2280.69 Z " />
<path stroke="transparent" fill="#000000" transform="matrix(0.0666667 0 0 0.0666667 -5.35999 -10.3333)" d="M 18987.1,2181.82 L 18976.7,2187.82 L 18948.1,2138.39 L 18958.5,2132.39 L 18987.1,2181.82 Z " />
<path stroke="transparent" fill="#000000" transform="matrix(0.0666667 0 0 0.0666667 -5.35999 -10.3333)" d="M 17828.1,1346.6 L 17823.7,1351 L 17817.7,1352.61 L 17673.1,1103.4 L 17677.5,1099 L 17683.5,1097.39 L 17828.1,1346.6 Z " />
<path stroke="transparent" fill="#000000" transform="matrix(0.0666667 0 0 0.0666667 -5.35999 -10.3333)" d="M 17776.4,1362.1 L 17766.1,1368.12 L 17634,1140.43 L 17644.4,1134.41 L 17776.4,1362.1 Z " />
<path stroke="transparent" fill="#000000" transform="matrix(0.0666667 0 0 0.0666667 -5.35999 -10.3333)" d="M 17817.7,1637.3 L 17823.7,1639 L 17828,1643.44 L 17683.5,1877.7 L 17677.5,1876 L 17673.2,1871.56 L 17817.7,1637.3 Z " />
<path stroke="transparent" fill="#000000" transform="matrix(0.0666667 0 0 0.0666667 -5.35999 -10.3333)" d="M 17768.5,1621.64 L 17778.7,1627.94 L 17646.6,1842.07 L 17636.4,1835.77 L 17768.5,1621.64 Z " />
<path stroke="transparent" fill="#000000" transform="matrix(0.0666667 0 0 0.0666667 -5.35999 -10.3333)" d="M 18447.7,1127.36 L 18453.7,1129 L 18458.1,1133.41 L 18328.5,1352.64 L 18322.5,1351 L 18318.2,1346.59 L 18447.7,1127.36 Z " />
<path stroke="transparent" fill="#000000" transform="matrix(0.0666667 0 0 0.0666667 -5.35999 -10.3333)" d="M 18482.3,1160.05 L 18492.6,1166.15 L 18374.1,1366.74 L 18363.8,1360.64 L 18482.3,1160.05 Z " />
<path stroke="transparent" fill="#000000" transform="matrix(0.0666667 0 0 0.0666667 -5.35999 -10.3333)" d="M 18458,1841.54 L 18453.7,1846 L 18447.7,1847.74 L 18318.2,1643.46 L 18322.5,1639 L 18328.5,1637.26 L 18458,1841.54 Z " />
<path stroke="transparent" fill="#000000" transform="matrix(0.0666667 0 0 0.0666667 -5.35999 -10.3333)" d="M 18490.2,1810.01 L 18480.1,1816.44 L 18361.6,1629.41 L 18371.7,1622.99 L 18490.2,1810.01 Z " />
<path stroke="transparent" fill="#000000" transform="matrix(0.0666667 0 0 0.0666667 -5.35999 -10.3333)" d="M 17040.4,1350.55 L 17030,1344.55 L 17058.5,1295.12 L 17068.9,1301.12 L 17040.4,1350.55 Z " />
<path stroke="transparent" fill="#000000" transform="matrix(0.0666667 0 0 0.0666667 -5.35999 -10.3333)" d="M 17097.5,1251.69 L 17087.1,1245.69 L 17115.6,1196.26 L 17126,1202.25 L 17097.5,1251.69 Z " />
<path stroke="transparent" fill="#000000" transform="matrix(0.0666667 0 0 0.0666667 -5.35999 -10.3333)" d="M 17154.5,1152.82 L 17144.1,1146.82 L 17172.7,1097.39 L 17183.1,1103.39 L 17154.5,1152.82 Z " />
<text x="0" y="0" stroke="transparent" fill="#000000" transform="matrix(0.0666667 0 0 0.0666667 1150.17 185.333)" style="font:normal normal bold 240px 'Arial'" >
Spiro-Carbon</text>
<path stroke="#000000" stroke-width="12" fill="transparent" transform="matrix(0.0666667 0 0 0.0666667 -5.35999 -10.3333)" d="M 15454.4,495 L 15615.1,495 " />
<path stroke="#000000" stroke-width="12" fill="transparent" transform="matrix(0.0666667 0 0 0.0666667 -5.35999 -10.3333)" d="M 15615.1,495 L 15615.1,2715 " />
<path stroke="#000000" stroke-width="12" fill="transparent" transform="matrix(0.0666667 0 0 0.0666667 -5.35999 -10.3333)" d="M 15615.1,2715 L 15454.4,2715 " />
<path stroke="#000000" stroke-width="12" fill="transparent" transform="matrix(0.0666667 0 0 0.0666667 -5.35999 -10.3333)" d="M 13203.3,2715 L 13042.6,2715 " />
<path stroke="#000000" stroke-width="12" fill="transparent" transform="matrix(0.0666667 0 0 0.0666667 -5.35999 -10.3333)" d="M 13042.6,2715 L 13042.6,495 " />
<path stroke="#000000" stroke-width="12" fill="transparent" transform="matrix(0.0666667 0 0 0.0666667 -5.35999 -10.3333)" d="M 13042.6,495 L 13203.3,495 " />
<path stroke="transparent" fill="#000000" transform="matrix(0.0666667 0 0 0.0666667 -5.35999 -10.3333)" d="M 16574.1,1606 L 15758,1606 L 15758,1594 L 16574.1,1594 Z " />
<path stroke="transparent" fill="#000000" transform="matrix(0.0666667 0 0 0.0666667 -5.35999 -10.3333)" d="M 16730.7,1600 C 16730.7,1600 16550.7,1646 16550.7,1646 C 16550.7,1646 16573.1,1620.13 16573.1,1600 C 16573.1,1579.43 16550.7,1553 16550.7,1553 C 16550.7,1553 16730.7,1600 16730.7,1600 C 16730.7,1600 16730.7,1600 16730.7,1600 " />
<path stroke="#000000" stroke-width="1" fill="transparent" transform="matrix(0.0666667 0 0 0.0666667 -5.35999 -10.3333)" d="M 16730.7,1600 C 16730.7,1600 16550.7,1646 16550.7,1646 C 16550.7,1646 16573.1,1620.13 16573.1,1600 C 16573.1,1579.43 16550.7,1553 16550.7,1553 C 16550.7,1553 16730.7,1600 16730.7,1600 C 16730.7,1600 16730.7,1600 16730.7,1600 " />
</svg>
